<svg width="15" height="15" viewBox="0 0 15 15" fill="none" xmlns="http://www.w3.org/2000/svg">
<path d="M8.75 9.375H13.125M1.875 9.375H3.125M3.125 9.375C3.125 10.2379 3.82455 10.9375 4.6875 10.9375C5.55045 10.9375 6.25 10.2379 6.25 9.375C6.25 8.51205 5.55045 7.8125 4.6875 7.8125C3.82455 7.8125 3.125 8.51205 3.125 9.375ZM12.5 5.625H13.125M1.875 5.625H6.25M10.3125 7.1875C9.44956 7.1875 8.75 6.48795 8.75 5.625C8.75 4.76206 9.44956 4.0625 10.3125 4.0625C11.1754 4.0625 11.875 4.76206 11.875 5.625C11.875 6.48795 11.1754 7.1875 10.3125 7.1875Z" stroke="black" stroke-width="1.25" stroke-linecap="round" stroke-linejoin="round"/>
</svg>
