<svg width="21" height="21" viewBox="0 0 21 21" fill="none" xmlns="http://www.w3.org/2000/svg">
<path d="M14.9902 8.57276C14.9902 7.95384 14.7444 7.36028 14.3067 6.92264C13.8691 6.485 13.2755 6.23914 12.6566 6.23914H5.07386C4.7674 6.23914 4.46395 6.2995 4.18082 6.41677C3.89769 6.53405 3.64044 6.70594 3.42374 6.92264C3.20704 7.13934 3.03515 7.39659 2.91787 7.67972C2.8006 7.96285 2.74024 8.2663 2.74024 8.57276V16.1555C2.74024 16.462 2.8006 16.7654 2.91787 17.0485C3.03515 17.3317 3.20704 17.5889 3.42374 17.8056C3.64044 18.0223 3.89769 18.1942 4.18082 18.3115C4.46395 18.4288 4.7674 18.4891 5.07386 18.4891H12.6566C12.9631 18.4891 13.2665 18.4288 13.5496 18.3115C13.8328 18.1942 14.09 18.0223 14.3067 17.8056C14.5234 17.5889 14.6953 17.3317 14.8126 17.0485C14.9299 16.7654 14.9902 16.462 14.9902 16.1555V8.57276Z" stroke="#7E7E7E" stroke-width="1.71818" stroke-linecap="round" stroke-linejoin="round"/>
<path d="M17.6033 14.7588C17.8719 14.6062 18.0953 14.3852 18.2509 14.1182C18.4064 13.8513 18.4885 13.5479 18.4888 13.239V4.48895C18.4888 3.52645 17.7013 2.73895 16.7388 2.73895H7.98877C7.33252 2.73895 6.97552 3.07583 6.67627 3.61395" stroke="#7E7E7E" stroke-width="1.75" stroke-linecap="round" stroke-linejoin="round"/>
</svg>
