<svg width="12" height="7" viewBox="0 0 12 7" fill="none" xmlns="http://www.w3.org/2000/svg">
<path fill-rule="evenodd" clip-rule="evenodd" d="M0.411338 0.415875C0.675933 0.145311 1.10493 0.145311 1.36952 0.415875L5.97198 5.12215L10.5744 0.415875C10.839 0.145311 11.268 0.145311 11.5326 0.415875C11.7972 0.686439 11.7972 1.12511 11.5326 1.39567L6.45107 6.59185C6.18648 6.86241 5.75748 6.86241 5.49289 6.59185L0.411338 1.39567C0.146742 1.12511 0.146742 0.686439 0.411338 0.415875Z" fill="black" fill-opacity="0.4"/>
<path d="M10.498 0.341858C10.8044 0.0285887 11.302 0.0285884 11.6084 0.341858C11.9134 0.653804 11.9134 1.15786 11.6084 1.46979L6.52734 6.66608C6.22099 6.97934 5.72335 6.97934 5.41699 6.66608L0.334961 1.46979C0.0303006 1.15794 0.0303326 0.653729 0.334961 0.341858C0.64132 0.0285886 1.13895 0.0285886 1.44531 0.341858L5.97168 4.96979L10.498 0.341858Z" stroke="black" stroke-opacity="0.4" stroke-width="0.212941" stroke-linecap="round" stroke-linejoin="round"/>
</svg>
