<svg width="24" height="22" viewBox="0 0 24 22" fill="none" xmlns="http://www.w3.org/2000/svg">
<path d="M1.16892 0.0691862C1.06694 0.0247232 0.953895 0 0.8352 0C0.373925 0 0 0.373949 0 0.83515C0 0.968559 0.0314248 1.09436 0.0869474 1.20611L0.0845861 1.20878C1.11507 3.6694 2.29812 5.46584 3.29686 7.02816C1.8804 10.1752 1.1198 13.5479 0.531148 16.9918L0.528767 17.0051C0.522066 17.0489 0.51809 17.0937 0.51809 17.1395C0.51809 17.6009 0.892035 17.9747 1.35323 17.9747C1.63821 17.9747 1.8894 17.8322 2.04021 17.6148L2.0409 17.6138C2.05116 17.599 2.06024 17.5841 2.06953 17.5688L2.07064 17.567C2.3998 17.0573 2.76572 16.5501 3.12089 16.0609C7.90942 9.49924 14.091 5.85319 21.494 3.19149C21.8563 3.0998 22.1239 2.77203 22.1239 2.38177C22.1239 1.92049 21.7503 1.54686 21.2888 1.54686H21.2674L21.2629 1.54722C16.7828 1.57798 12.9207 1.67302 9.39348 1.53923C7.06354 1.45761 4.909 1.13081 2.7995 0.607365C2.2827 0.480959 1.68001 0.270573 1.17029 0.0678959L1.16892 0.0691862Z" fill="white"/>
<path d="M3.87514 21.1188C3.90352 21.0802 3.92862 21.0386 3.95036 20.9956C8.78543 13.022 14.6051 9.29184 22.7944 6.3636C22.814 6.35758 22.8329 6.35056 22.8517 6.34315L22.8574 6.34087C23.1617 6.21645 23.3765 5.91705 23.3765 5.56791C23.3765 5.10663 23.0025 4.7327 22.5413 4.7327C22.4741 4.7327 22.4089 4.74071 22.3459 4.75581H22.3449C22.2852 4.77016 22.2283 4.79129 22.1744 4.81767C14.1931 7.69541 8.02317 11.5542 3.16909 19.0769L2.48774 20.1922L2.48508 20.1966C2.4098 20.3219 2.36668 20.4681 2.36668 20.6251C2.36668 21.0863 2.74063 21.4603 3.2015 21.4603C3.47811 21.4603 3.72327 21.3252 3.87514 21.1188Z" fill="white"/>
</svg>
