<svg width="12" height="12" viewBox="0 0 12 12" fill="none" xmlns="http://www.w3.org/2000/svg">
<path d="M5.67285 0.046875C5.96212 0.0507584 6.25239 0.0663706 6.41309 0.0917969C6.95976 0.178506 7.55105 0.36504 8.05566 0.610352C9.49536 1.31033 10.618 2.69676 11.001 4.24805C11.1126 4.70036 11.1377 4.95044 11.1377 5.5957C11.1376 6.14866 11.1314 6.25585 11.085 6.5166C10.9527 7.2599 10.7453 7.82098 10.3613 8.46973C10.0822 8.94139 9.50858 9.59427 9.07227 9.9375C8.28762 10.5545 7.40054 10.9396 6.3916 11.1016C6.21134 11.1305 5.89734 11.1447 5.58789 11.1445C5.27857 11.1443 4.96753 11.1298 4.79199 11.1006C3.93313 10.9578 3.21072 10.683 2.54297 10.2441C2.17494 10.0022 1.98551 9.84651 1.64258 9.50391C0.939515 8.80155 0.428437 7.91404 0.194336 6.98633C0.0715694 6.49974 0.0459012 6.25697 0.0458984 5.5957C0.0458984 4.95032 0.0711103 4.69781 0.182617 4.24805C0.324222 3.67695 0.613047 3.02559 0.941406 2.53613C1.46328 1.75824 2.16647 1.11894 2.98145 0.681641C3.52846 0.388138 4.27596 0.152979 4.92188 0.0712891C5.08855 0.0502165 5.38311 0.0429959 5.67285 0.046875ZM6.22168 1.05469C5.46885 0.951431 4.71182 1.0346 4.00684 1.29785C3.28038 1.56917 2.68834 1.96989 2.17773 2.53418C1.89174 2.85025 1.67204 3.17478 1.46387 3.58984C1.12529 4.26511 0.954378 5.14274 1.01465 5.89648C1.08362 6.75878 1.31476 7.44148 1.77539 8.14062C2.38614 9.06746 3.35752 9.75143 4.47461 10.04C4.85098 10.1372 5.15099 10.1729 5.5918 10.1729C6.03262 10.1729 6.33261 10.1372 6.70898 10.04C7.83259 9.74975 8.79565 9.07154 9.4082 8.14062C9.92743 7.35149 10.1738 6.53162 10.1738 5.5957C10.1738 4.64439 9.93233 3.85 9.39551 3.03613C8.69914 1.98066 7.49678 1.22959 6.22168 1.05469ZM5.53906 2.16211C5.62567 2.15667 5.71692 2.17293 5.80078 2.20508C5.91277 2.24803 6.01699 2.32072 6.08203 2.41504C6.11162 2.45797 6.13205 2.49466 6.14551 2.53906C6.15859 2.58238 6.16368 2.63153 6.16797 2.69824C6.1744 2.79842 6.17005 2.87901 6.14844 2.95117C6.12657 3.02415 6.08858 3.0852 6.03223 3.14746C5.98316 3.20167 5.93791 3.24135 5.88379 3.27148C5.82998 3.30143 5.76976 3.32035 5.69238 3.33691C5.44441 3.38998 5.17495 3.24642 5.05859 3.00684C5.0369 2.96212 5.0221 2.9253 5.01562 2.87891C5.00938 2.83413 5.01034 2.7821 5.01465 2.70801C5.01891 2.63462 5.02504 2.58292 5.03711 2.53906C5.04966 2.49361 5.06854 2.45852 5.09668 2.41797C5.13418 2.36396 5.19238 2.31094 5.25488 2.26855C5.31737 2.22624 5.38811 2.19148 5.4541 2.1748L5.53906 2.16211ZM6.08398 7.6543H6.2959C6.5078 7.6543 6.578 7.66178 6.66113 7.7041C7.00512 7.87938 7.00605 8.37761 6.66406 8.55762L6.56543 8.60938L6.55566 8.61426H4.62793L4.61816 8.60938L4.51953 8.55762C4.17756 8.37761 4.17851 7.8794 4.52246 7.7041C4.60559 7.66179 4.67583 7.6543 4.8877 7.6543H5.09961V5.22949H4.88672C4.73966 5.22949 4.63941 5.22357 4.5625 5.19922C4.48199 5.17366 4.42944 5.12862 4.37402 5.06152C4.1824 4.82918 4.24794 4.47488 4.50977 4.3252C4.53161 4.3127 4.55273 4.30153 4.58008 4.29297C4.6072 4.2845 4.63875 4.27935 4.68262 4.27637C4.76938 4.27049 4.91564 4.2716 5.19434 4.27441L5.7666 4.28027H5.78223L5.79492 4.29004L5.88086 4.3584C5.93298 4.39989 5.99767 4.4795 6.02832 4.53906L6.0791 4.6377L6.08398 4.64746V7.6543Z" fill="black" stroke="black" stroke-width="0.0916667"/>
</svg>
