<svg width="24" height="24" viewBox="0 0 24 24" fill="none" xmlns="http://www.w3.org/2000/svg">
<path d="M17 2.25C21.41 2.25 22.75 3.59 22.75 8V16C22.75 20.41 21.41 21.75 17 21.75H7C2.59 21.75 1.25 20.41 1.25 16V8C1.25 3.59 2.59 2.25 7 2.25H17ZM7 3.75C3.42 3.75 2.75 4.43 2.75 8V16C2.75 19.57 3.42 20.25 7 20.25H17C20.58 20.25 21.25 19.57 21.25 16V8C21.25 4.43 20.58 3.75 17 3.75H7Z" fill="black"/>
<path d="M17 2.25C21.41 2.25 22.75 3.59 22.75 8V16C22.75 20.41 21.41 21.75 17 21.75H7C2.59 21.75 1.25 20.41 1.25 16V8C1.25 3.59 2.59 2.25 7 2.25H17ZM7 3.75C3.42 3.75 2.75 4.43 2.75 8V16C2.75 19.57 3.42 20.25 7 20.25H17C20.58 20.25 21.25 19.57 21.25 16V8C21.25 4.43 20.58 3.75 17 3.75H7Z" stroke="black"/>
<path d="M19 7.25C19.41 7.25 19.75 7.59 19.75 8C19.75 8.41 19.41 8.75 19 8.75H14C13.59 8.75 13.25 8.41 13.25 8C13.25 7.59 13.59 7.25 14 7.25H19Z" fill="black"/>
<path d="M19 7.25C19.41 7.25 19.75 7.59 19.75 8C19.75 8.41 19.41 8.75 19 8.75H14C13.59 8.75 13.25 8.41 13.25 8C13.25 7.59 13.59 7.25 14 7.25H19Z" stroke="black"/>
<path d="M19 11.25C19.41 11.25 19.75 11.59 19.75 12C19.75 12.41 19.41 12.75 19 12.75H15C14.59 12.75 14.25 12.41 14.25 12C14.25 11.59 14.59 11.25 15 11.25H19Z" fill="black"/>
<path d="M19 11.25C19.41 11.25 19.75 11.59 19.75 12C19.75 12.41 19.41 12.75 19 12.75H15C14.59 12.75 14.25 12.41 14.25 12C14.25 11.59 14.59 11.25 15 11.25H19Z" stroke="black"/>
<path d="M19 15.25C19.41 15.25 19.75 15.59 19.75 16C19.75 16.41 19.41 16.75 19 16.75H17C16.59 16.75 16.25 16.41 16.25 16C16.25 15.59 16.59 15.25 17 15.25H19Z" fill="black"/>
<path d="M19 15.25C19.41 15.25 19.75 15.59 19.75 16C19.75 16.41 19.41 16.75 19 16.75H17C16.59 16.75 16.25 16.41 16.25 16C16.25 15.59 16.59 15.25 17 15.25H19Z" stroke="black"/>
<path d="M8.5 6.91992C9.90986 6.91992 11.0603 8.06969 11.0605 9.47949C11.0605 10.8895 9.91 12.04 8.5 12.04C7.0902 12.0398 5.94043 10.8893 5.94043 9.47949C5.94066 8.06983 7.09034 6.92016 8.5 6.91992ZM8.5 8.41992C7.92034 8.42016 7.44067 8.89983 7.44043 9.47949C7.44043 10.0593 7.92019 10.5398 8.5 10.54C9.08 10.54 9.56055 10.0595 9.56055 9.47949C9.56031 8.89968 9.07986 8.41992 8.5 8.41992Z" fill="black"/>
<path d="M8.5 6.91992C9.90986 6.91992 11.0603 8.06969 11.0605 9.47949C11.0605 10.8895 9.91 12.04 8.5 12.04C7.0902 12.0398 5.94043 10.8893 5.94043 9.47949C5.94066 8.06983 7.09034 6.92016 8.5 6.91992ZM8.5 8.41992C7.92034 8.42016 7.44067 8.89983 7.44043 9.47949C7.44043 10.0593 7.92019 10.5398 8.5 10.54C9.08 10.54 9.56055 10.0595 9.56055 9.47949C9.56031 8.89968 9.07986 8.41992 8.5 8.41992Z" stroke="black"/>
<path d="M7.66016 12.8594C8.21007 12.8094 8.77041 12.8094 9.32031 12.8594C11.1201 13.0295 12.5602 14.4601 12.7402 16.25C12.7801 16.6597 12.48 17.0291 12.0703 17.0693C12.0503 17.0793 12.02 17.0801 12 17.0801C11.62 17.0801 11.29 16.7894 11.25 16.3994C11.1399 15.3196 10.2696 14.4496 9.17969 14.3496C8.71976 14.3096 8.25973 14.3096 7.7998 14.3496C6.70995 14.4496 5.83962 15.3096 5.72949 16.3994C5.6895 16.8093 5.32008 17.1192 4.91016 17.0693C4.50022 17.0293 4.20035 16.6599 4.24023 16.25C4.42023 14.45 5.85016 13.0194 7.66016 12.8594Z" fill="black"/>
<path d="M7.66016 12.8594C8.21007 12.8094 8.77041 12.8094 9.32031 12.8594C11.1201 13.0295 12.5602 14.4601 12.7402 16.25C12.7801 16.6597 12.48 17.0291 12.0703 17.0693C12.0503 17.0793 12.02 17.0801 12 17.0801C11.62 17.0801 11.29 16.7894 11.25 16.3994C11.1399 15.3196 10.2696 14.4496 9.17969 14.3496C8.71976 14.3096 8.25973 14.3096 7.7998 14.3496C6.70995 14.4496 5.83962 15.3096 5.72949 16.3994C5.6895 16.8093 5.32008 17.1192 4.91016 17.0693C4.50022 17.0293 4.20035 16.6599 4.24023 16.25C4.42023 14.45 5.85016 13.0194 7.66016 12.8594Z" stroke="black"/>
</svg>
