<svg width="22" height="22" viewBox="0 0 22 22" fill="none" xmlns="http://www.w3.org/2000/svg">
<path d="M21.4566 0.373774C21.6762 0.59353 21.7407 0.924882 21.6202 1.21139L13.2144 21.2113C13.0858 21.5172 12.775 21.7044 12.4444 21.6761C12.2602 21.6603 12.0931 21.5802 11.9686 21.4558C11.8697 21.3568 11.7973 21.2302 11.7642 21.087L9.69747 12.1315L0.743318 10.0661C0.419889 9.9914 0.18136 9.71645 0.152911 9.38593C0.124616 9.0553 0.313079 8.74455 0.619021 8.61599L20.619 0.210118C20.9055 0.0896715 21.2368 0.154019 21.4566 0.373774ZM3.39566 9.10696L10.5075 10.7497C10.65 10.7826 10.7768 10.8547 10.8762 10.9541C10.9756 11.0536 11.0477 11.1804 11.0806 11.3229L12.7227 18.434L19.4851 2.34525L3.39566 9.10696Z" fill="black" stroke="black" stroke-width="0.3"/>
</svg>
