<svg width="23" height="23" viewBox="0 0 23 23" fill="none" xmlns="http://www.w3.org/2000/svg">
<path d="M14.1228 11.5C14.1228 12.9877 12.9485 14.1937 11.5 14.1937C10.0515 14.1937 8.87719 12.9877 8.87719 11.5C8.87719 10.0123 10.0515 8.80631 11.5 8.80631C12.9485 8.80631 14.1228 10.0123 14.1228 11.5Z" fill="white"/>
<path d="M9.68421 7.04504C9.68421 8.53273 8.50994 9.73874 7.0614 9.73874C5.61287 9.73874 4.4386 8.53273 4.4386 7.04504C4.4386 5.55736 5.61287 4.35135 7.0614 4.35135C8.50994 4.35135 9.68421 5.55736 9.68421 7.04504Z" fill="white"/>
<path d="M5.24561 11.5C5.24561 12.9877 4.07134 14.1937 2.62281 14.1937C1.17427 14.1937 0 12.9877 0 11.5C0 10.0123 1.17427 8.80631 2.62281 8.80631C4.07134 8.80631 5.24561 10.0123 5.24561 11.5Z" fill="white"/>
<path d="M14.1228 20.3063C14.1228 21.794 12.9485 23 11.5 23C10.0515 23 8.87719 21.794 8.87719 20.3063C8.87719 18.8186 10.0515 17.6126 11.5 17.6126C12.9485 17.6126 14.1228 18.8186 14.1228 20.3063Z" fill="white"/>
<path d="M9.68421 15.8514C9.68421 17.339 8.50994 18.545 7.0614 18.545C5.61287 18.545 4.4386 17.339 4.4386 15.8514C4.4386 14.3637 5.61287 13.1577 7.0614 13.1577C8.50994 13.1577 9.68421 14.3637 9.68421 15.8514Z" fill="white"/>
<path d="M18.5614 15.8514C18.5614 17.339 17.3871 18.545 15.9386 18.545C14.4901 18.545 13.3158 17.339 13.3158 15.8514C13.3158 14.3637 14.4901 13.1577 15.9386 13.1577C17.3871 13.1577 18.5614 14.3637 18.5614 15.8514Z" fill="white"/>
<path d="M23 11.5C23 12.9877 21.8257 14.1937 20.3772 14.1937C18.9287 14.1937 17.7544 12.9877 17.7544 11.5C17.7544 10.0123 18.9287 8.80631 20.3772 8.80631C21.8257 8.80631 23 10.0123 23 11.5Z" fill="white"/>
<path d="M18.5614 7.04504C18.5614 8.53273 17.3871 9.73874 15.9386 9.73874C14.4901 9.73874 13.3158 8.53273 13.3158 7.04504C13.3158 5.55736 14.4901 4.35135 15.9386 4.35135C17.3871 4.35135 18.5614 5.55736 18.5614 7.04504Z" fill="white"/>
<path d="M14.1228 2.69369C14.1228 4.18138 12.9485 5.38739 11.5 5.38739C10.0515 5.38739 8.87719 4.18138 8.87719 2.69369C8.87719 1.20601 10.0515 0 11.5 0C12.9485 0 14.1228 1.20601 14.1228 2.69369Z" fill="white"/>
</svg>
