<svg width="17" height="20" viewBox="0 0 17 20" fill="none" xmlns="http://www.w3.org/2000/svg">
<g clip-path="url(#clip0_0_10580)">
<path d="M7.69922 0.950195C8.32523 0.885179 8.60143 0.88405 9.20508 0.944336C10.6292 1.08658 12.024 1.62918 13.1484 2.47949C13.6217 2.83749 14.3514 3.59556 14.709 4.10059C15.3234 4.9686 15.7643 5.9848 15.999 7.07129C16.0671 7.38626 16.0995 7.92826 16.0996 8.46289C16.0997 8.99753 16.0678 9.54046 16 9.85742C15.571 11.8602 14.3368 13.8412 12.2158 15.957C11.711 16.4606 11.0019 17.1167 10.3848 17.6641C10.0761 17.9378 9.78951 18.1847 9.5625 18.3721C9.44909 18.4657 9.3496 18.5451 9.26953 18.6055C9.19203 18.6639 9.12572 18.7097 9.08105 18.7314C8.72974 18.9022 8.23877 18.8969 7.89746 18.7168C7.81025 18.6707 7.63715 18.5374 7.41992 18.3584C7.19873 18.1761 6.92284 17.9377 6.625 17.6738C6.02938 17.146 5.34452 16.5124 4.83691 16.0078C2.67651 13.8603 1.43201 11.8744 1 9.85742C0.932151 9.54046 0.900288 8.99753 0.900391 8.46289C0.900497 7.92826 0.932917 7.38626 1.00098 7.07129C1.23596 5.98356 1.67859 4.96011 2.28223 4.11328C2.65242 3.59398 3.38386 2.83233 3.85156 2.47949C4.94389 1.65558 6.371 1.0882 7.69922 0.950195ZM9.72852 2.28906C9.25467 2.19292 8.26138 2.15235 7.76758 2.20898C6.30367 2.37696 4.93809 3.06376 3.89355 4.1582C2.97065 5.12529 2.41178 6.25501 2.20117 7.58203C2.16147 7.83223 2.14453 8.20914 2.14941 8.58203C2.15432 8.95542 2.18118 9.31605 2.22656 9.53516C2.58931 11.2858 3.58727 12.9244 5.49414 14.874C5.88923 15.278 6.5899 15.941 7.2168 16.5137C7.53005 16.7998 7.8246 17.063 8.05176 17.2598C8.16524 17.358 8.26163 17.439 8.33496 17.498C8.37172 17.5276 8.40233 17.5513 8.42578 17.5684C8.4374 17.5768 8.4469 17.5833 8.4541 17.5879C8.45971 17.5915 8.46281 17.5932 8.46387 17.5938C8.49131 17.6062 8.52292 17.6093 8.58301 17.5693C8.64393 17.5289 8.81661 17.3832 9.05957 17.168C9.29955 16.9554 9.60218 16.6809 9.91699 16.3906C10.5469 15.8097 11.2257 15.1657 11.5635 14.8193C13.4113 12.9242 14.4153 11.2634 14.7734 9.53516C14.8188 9.31605 14.8457 8.95542 14.8506 8.58203C14.8555 8.20914 14.8385 7.83223 14.7988 7.58203C14.3759 4.91762 12.3726 2.82641 9.72852 2.28906ZM7.88184 4.88477C9.65691 4.55152 11.4156 5.70401 11.8369 7.47461C11.8822 7.66499 11.9032 7.95291 11.9033 8.23438C11.9034 8.51586 11.8821 8.80401 11.8369 8.99512C11.5434 10.2374 10.5134 11.2653 9.2627 11.5645C9.07132 11.6103 8.78238 11.6318 8.5 11.6318C8.21762 11.6318 7.92868 11.6103 7.7373 11.5645C6.48661 11.2653 5.45664 10.2374 5.16309 8.99512C5.11794 8.80401 5.0966 8.51586 5.09668 8.23438C5.09678 7.95291 5.11783 7.66499 5.16309 7.47461C5.47591 6.15996 6.55289 5.13443 7.88184 4.88477ZM8.92285 6.12793C8.21254 5.97899 7.52655 6.18874 6.98633 6.72656C6.63169 7.0797 6.43999 7.44953 6.36816 7.91211C6.20095 8.99044 6.89891 10.0453 7.96484 10.3223C9.7183 10.7777 11.2228 8.95369 10.4463 7.30957C10.1786 6.74277 9.55906 6.26134 8.92285 6.12793Z" fill="black" stroke="black" stroke-width="0.2"/>
</g>
<defs>
<clipPath id="clip0_0_10580">
<rect width="17" height="20" fill="white"/>
</clipPath>
</defs>
</svg>
