<svg width="18" height="21" viewBox="0 0 18 21" fill="none" xmlns="http://www.w3.org/2000/svg">
<path d="M7.81934 0.169922C8.52895 0.0962258 8.84191 0.0947132 9.52637 0.163086C11.1404 0.324333 12.7208 0.939578 13.9951 1.90332C14.5315 2.30901 15.3574 3.16787 15.7627 3.74023C16.4592 4.72409 16.9595 5.87588 17.2256 7.10742C17.3027 7.4644 17.3397 8.07863 17.3398 8.68457C17.34 9.29032 17.3034 9.90538 17.2266 10.2646C16.7404 12.5345 15.3413 14.7798 12.9375 17.1777C12.3654 17.7484 11.5617 18.492 10.8623 19.1123C10.5125 19.4225 10.1879 19.7028 9.93066 19.915C9.80221 20.021 9.69031 20.1113 9.59961 20.1797C9.51173 20.2459 9.43643 20.2976 9.38574 20.3223C8.98762 20.5159 8.43085 20.5098 8.04395 20.3057C7.94511 20.2535 7.74822 20.1024 7.50195 19.8994C7.25129 19.6928 6.93806 19.4231 6.60059 19.124C5.92562 18.5259 5.15041 17.8072 4.5752 17.2354C2.12673 14.8015 0.716177 12.5505 0.226562 10.2646C0.149712 9.90538 0.113165 9.29032 0.113281 8.68457C0.113399 8.07863 0.150402 7.4644 0.227539 7.10742C0.493863 5.87454 0.996456 4.71469 1.68066 3.75488C2.10028 3.16635 2.92803 2.30313 3.45801 1.90332C4.69608 0.969417 6.31386 0.326286 7.81934 0.169922ZM10.1191 1.6875C9.58222 1.57851 8.45621 1.53249 7.89648 1.59668C6.23742 1.78704 4.68966 2.56533 3.50586 3.80566C2.45982 4.90177 1.82654 6.18243 1.58789 7.68652C1.5429 7.97008 1.52376 8.39672 1.5293 8.81934C1.53485 9.24258 1.56477 9.65105 1.61621 9.89941C2.02726 11.8837 3.15807 13.7414 5.31934 15.9512C5.76712 16.409 6.56201 17.1596 7.27246 17.8086C7.62746 18.1329 7.96132 18.4304 8.21875 18.6533C8.34749 18.7648 8.45588 18.8578 8.53906 18.9248C8.58073 18.9583 8.616 18.9846 8.64258 19.0039C8.65573 19.0135 8.66665 19.0211 8.6748 19.0264C8.6812 19.0305 8.68448 19.0326 8.68555 19.0332C8.71657 19.0473 8.75256 19.0507 8.82031 19.0059C8.88935 18.96 9.08578 18.7939 9.36133 18.5498C9.63324 18.309 9.9754 17.9988 10.332 17.6699C11.0462 17.0113 11.8164 16.2813 12.1992 15.8887C14.2935 13.7407 15.4311 11.8583 15.8369 9.89941C15.8884 9.65105 15.9183 9.24258 15.9238 8.81934C15.9294 8.39672 15.9102 7.97008 15.8652 7.68652C15.3861 4.6667 13.1159 2.29651 10.1191 1.6875ZM8.02637 4.62891C10.0381 4.25123 12.0303 5.55785 12.5078 7.56445C12.5591 7.78028 12.5839 8.10671 12.584 8.42578C12.5841 8.74488 12.56 9.0715 12.5088 9.28809C12.1761 10.6959 11.0083 11.8601 9.59082 12.1992C9.37392 12.2511 9.04659 12.2754 8.72656 12.2754C8.40653 12.2754 8.0792 12.2511 7.8623 12.1992C6.44487 11.8601 5.27707 10.6959 4.94434 9.28809C4.89314 9.0715 4.86905 8.74488 4.86914 8.42578C4.86924 8.10671 4.894 7.78028 4.94531 7.56445C5.29992 6.07443 6.52006 4.9117 8.02637 4.62891ZM9.20605 6.03809C8.4011 5.86925 7.62396 6.10742 7.01172 6.7168C6.60989 7.11692 6.392 7.53549 6.31055 8.05957C6.12083 9.28184 6.91188 10.4781 8.12012 10.792C10.1072 11.3081 11.8122 9.24113 10.9326 7.37793C10.6293 6.73557 9.92707 6.18931 9.20605 6.03809Z" fill="#B6B6B6" stroke="#B6B6B6" stroke-width="0.226667"/>
</svg>
