<svg width="28" height="33" viewBox="0 0 28 33" fill="none" xmlns="http://www.w3.org/2000/svg">
<path d="M20.7656 12.4402L20.6152 12.2355C27.4346 5.75669 27.4346 5.12034 27.4346 5.12034C26.6824 4.30139 25.8801 3.5848 25.0277 2.97056C23.8243 2.10038 22.5205 1.38367 21.1166 0.923019C15.3 -1.22686 8.38027 0.462369 4.21846 5.12034C-1.3474 11.2117 -1.44768 20.8862 4.16831 27.0798C10.0852 33.5806 20.1639 33.9901 26.532 28.0012L26.6323 27.8989L26.7326 27.7964L26.7828 27.7453C26.8831 27.6429 26.9834 27.5405 27.0334 27.4381C28.8386 25.0835 26.1309 18.6851 20.7656 12.4402ZM25.6796 26.2609C25.2785 26.6703 23.5736 26.7215 20.8158 25.2371C18.2584 23.855 15.4003 21.5004 12.6926 18.6339C12.2413 18.9922 19.7627 12.9521 19.4117 13.2591C21.7685 16.0233 23.7741 19.0434 24.8271 21.5515C26.0807 24.4693 26.0306 25.9026 25.6796 26.2609Z" fill="#2D2D2D"/>
</svg>
