<svg width="28" height="26" viewBox="0 0 28 26" fill="none" xmlns="http://www.w3.org/2000/svg">
<path d="M12.2812 3.78516C12.8879 3.78914 13.4866 3.80172 13.9551 3.82129C14.1895 3.83108 14.3896 3.84236 14.541 3.85547C14.6169 3.86204 14.6788 3.86913 14.7256 3.87598C14.7488 3.87938 14.7668 3.88287 14.7803 3.88574C14.7941 3.88871 14.799 3.89009 14.7979 3.88965C15.2045 4.04432 15.4357 4.31093 15.5068 4.58594C15.5772 4.85814 15.5003 5.17557 15.2168 5.45898C15.125 5.55082 15.0734 5.59959 15.0059 5.63574C14.9394 5.67124 14.8438 5.7009 14.6621 5.72266C14.29 5.76719 13.632 5.76953 12.2959 5.76953H9.53125L9.47656 5.82031L8.36719 6.84961C8.06674 7.12821 7.73879 7.39954 7.4541 7.61133C7.31179 7.71719 7.1816 7.80695 7.07227 7.875C6.95968 7.94507 6.87997 7.98509 6.83496 8C6.7241 8.03661 6.43333 8.07963 6.03418 8.11621C5.64399 8.15197 5.17152 8.18024 4.71191 8.19043L3.02539 8.22754L2.94238 8.22949L2.8877 8.29102L2.01855 9.26367L1.96973 9.31836V22.3936L2.01465 22.4463L2.40039 22.9043L2.78613 23.3633L2.84277 23.4307H21.3223L21.7432 23.0098L22.1084 22.6436L22.1641 22.5879V17.8916C22.1641 16.3347 22.1783 15.1522 22.2061 14.3291C22.22 13.9174 22.2372 13.5979 22.2578 13.3672C22.2681 13.2517 22.2788 13.1605 22.29 13.0928C22.2957 13.0591 22.3017 13.0324 22.3066 13.0127C22.3091 13.0031 22.3107 12.9956 22.3125 12.9902C22.3143 12.9848 22.3154 12.9824 22.3154 12.9824C22.4718 12.6393 22.8187 12.4648 23.1797 12.4727C23.5407 12.4806 23.8827 12.6704 24.0283 13.0215C24.0342 13.0356 24.0449 13.0737 24.0566 13.1475C24.0679 13.2181 24.0792 13.3117 24.0889 13.4297C24.1081 13.6659 24.1227 13.9928 24.1328 14.418C24.153 15.2678 24.1544 16.5033 24.1387 18.1855C24.117 20.5089 24.1025 21.7155 24.0547 22.415C24.0309 22.7634 23.9996 22.9761 23.958 23.1338C23.9174 23.2878 23.8657 23.3967 23.79 23.5381C23.396 24.2745 22.6694 24.9114 21.8848 25.21C21.6289 25.3073 21.2635 25.3692 19.8662 25.3975C18.4774 25.4255 16.0958 25.4214 11.833 25.4023L2.41406 25.3604L1.73047 24.9375C1.30385 24.6736 0.87627 24.246 0.612305 23.8193L0.19043 23.1367V8.59473L0.611328 7.91309L0.612305 7.91406C0.876251 7.48733 1.30387 7.05893 1.73047 6.79492C2.07165 6.58392 2.2542 6.48611 2.55762 6.42676C2.87704 6.36428 3.3291 6.34455 4.20996 6.31934L6.05469 6.2666L6.12598 6.26465L6.17871 6.2168L7.2666 5.20801C7.75308 4.75694 8.10141 4.47416 8.44043 4.27734C8.77605 4.08253 9.11097 3.96676 9.57617 3.8623C9.63139 3.8499 9.7488 3.83656 9.92578 3.8252C10.0985 3.81411 10.3172 3.80546 10.5654 3.79883C11.0616 3.78559 11.6747 3.78117 12.2812 3.78516ZM12.2969 10.0635C12.9252 10.0821 13.2946 10.1068 13.6094 10.1748C13.9196 10.2418 14.1851 10.3519 14.6016 10.5576V10.5586C16.9877 11.7375 18.3255 14.263 17.9023 16.7598C17.5782 18.6726 16.3654 20.3073 14.6455 21.1543C14.2345 21.3566 13.9511 21.4735 13.6377 21.5479C13.3219 21.6228 12.9665 21.6569 12.4082 21.6836C11.8545 21.71 11.4982 21.7115 11.1875 21.6738C10.8802 21.6365 10.6096 21.5602 10.2285 21.4219C8.53528 20.807 7.51286 19.8764 6.74219 18.25C6.53241 17.8074 6.42625 17.549 6.36816 17.2393C6.30909 16.924 6.29785 16.5477 6.29785 15.8662C6.29785 15.1847 6.30907 14.8084 6.36816 14.4932C6.42625 14.1834 6.53241 13.9251 6.74219 13.4824C7.48981 11.9047 8.49773 10.9653 10.125 10.3291C10.4524 10.2011 10.7046 10.1273 11.0146 10.0889C11.3295 10.0499 11.7104 10.0462 12.2969 10.0635ZM13.7041 12.2861C12.1756 11.6507 10.2864 12.0068 9.21875 13.1523C8.75308 13.6519 8.44088 14.3862 8.30566 15.1377C8.17048 15.8892 8.20689 16.6855 8.46973 17.3145C9.77777 20.4451 14.0425 20.6119 15.6309 17.6035C15.8735 17.1438 15.9879 16.4962 15.9883 15.8672C15.9887 15.2384 15.8754 14.5927 15.6328 14.1377C15.2132 13.3511 14.4228 12.585 13.7041 12.2861ZM23.166 0.19043C23.3771 0.19043 23.5075 0.211501 23.6074 0.255859C23.7042 0.29889 23.791 0.371961 23.8994 0.509766H23.9004C24.0133 0.653224 24.0756 0.775353 24.1143 0.99707C24.1554 1.23318 24.168 1.57625 24.168 2.16309V3.72363L24.3506 3.73047L25.8232 3.79004C26.6039 3.82143 27.0387 3.86922 27.3086 3.97461C27.4362 4.02445 27.5211 4.08507 27.5869 4.16113C27.6548 4.2397 27.7108 4.34388 27.7676 4.49316C27.8798 4.78822 27.7652 5.24157 27.4287 5.57812C27.3722 5.63465 27.2821 5.68724 27.041 5.72168C26.7966 5.75658 26.4267 5.76953 25.8369 5.76953H24.168V7.38574C24.168 8.08609 24.1633 8.41898 24.1133 8.63281C24.0701 8.81747 23.9959 8.90646 23.7881 9.11426C23.5528 9.34946 23.4114 9.44254 23.2852 9.46973C23.164 9.49571 23.0177 9.46894 22.7471 9.3457C22.6324 9.29345 22.5456 9.23111 22.4766 9.15137C22.4071 9.07101 22.348 8.9638 22.3008 8.8125C22.2042 8.50251 22.1641 8.0338 22.1641 7.29297V5.76953H20.4902C19.8168 5.76953 19.4577 5.75984 19.2324 5.71875C19.125 5.69913 19.0571 5.67397 19.0049 5.64355C18.9521 5.61277 18.9043 5.57104 18.8418 5.50391C18.6767 5.32668 18.5853 5.04677 18.5869 4.75977C18.5886 4.47124 18.6835 4.21585 18.8398 4.07422C18.9338 3.98915 19.047 3.92804 19.2881 3.88281C19.5381 3.83596 19.9088 3.80989 20.5068 3.78906L21.9814 3.7373L22.1641 3.73145V2.16602C22.1641 1.57769 22.1766 1.23356 22.2178 0.99707C22.2565 0.77516 22.3197 0.653221 22.4326 0.509766C22.541 0.371929 22.6278 0.298925 22.7246 0.255859C22.8245 0.211474 22.955 0.190445 23.166 0.19043Z" fill="#7E7E7E" stroke="#7E7E7E" stroke-width="0.38"/>
</svg>
