<svg xmlns="http://www.w3.org/2000/svg" viewBox="0 0 20.6004 21.875">
  <g transform="translate(-74.75 -1.625)">
    <path d="M74.75 5.5625L85.0502 1.625L95.3504 5.5625V19.5625L85.0502 23.5L74.75 19.5625V5.5625Z" fill="#FF7751"/>
    <path d="M74.75 5.5625L85.0502 9.5V23.5L74.75 19.5625V5.5625Z" fill="#E13100"/>
    <path d="M95.3503 5.5625L85.0502 9.5V23.5L95.3503 19.5625V5.5625Z" fill="#FC4714"/>
    <path d="M94.2178 17.054C92.0064 19.3286 88.4589 20.6297 86.1836 20.1594V18.929C88.4131 19.4117 91.9904 18.2319 94.2178 15.8235V17.054ZM89.6523 13.4612L88.9219 13.7444V17.0442L87.0957 17.7502V14.4504L86.3652 14.7317L88.0088 9.96997L89.6523 13.4612ZM94.0342 11.7678L92.3096 12.4348L93.3047 12.05V15.3508L91.4785 16.0559V12.7561L90.748 13.0383L92.3916 8.27563L94.0342 11.7678Z" fill="white"/>
  </g>
</svg>
