<svg width="26" height="24" viewBox="0 0 26 24" fill="none" xmlns="http://www.w3.org/2000/svg">
<path d="M13 13.4083C12.8592 13.4083 12.7183 13.3758 12.5883 13.3L3.0225 7.76417C2.64333 7.53667 2.5025 7.03834 2.73 6.64834C2.9575 6.25834 3.45583 6.12834 3.84583 6.35584L13 11.6533L22.1 6.38834C22.49 6.16084 22.9883 6.30167 23.2158 6.68084C23.4433 7.07084 23.3025 7.56917 22.9233 7.79667L13.4225 13.3C13.2817 13.365 13.1408 13.4083 13 13.4083Z" fill="#D2D0CA"/>
<path d="M13 23.2233C12.5558 23.2233 12.1875 22.855 12.1875 22.4108V12.585C12.1875 12.1408 12.5558 11.7725 13 11.7725C13.4442 11.7725 13.8125 12.1408 13.8125 12.585V22.4108C13.8125 22.855 13.4442 23.2233 13 23.2233Z" fill="#D2D0CA"/>
<path d="M13 23.6459C12.0467 23.6459 11.1042 23.4401 10.3567 23.0284L4.57166 19.8109C3.00083 18.9442 1.77666 16.8534 1.77666 15.0551V8.93425C1.77666 7.13591 3.00083 5.05591 4.57166 4.17841L10.3567 0.971748C11.8408 0.148415 14.1592 0.148415 15.6433 0.971748L21.4283 4.18925C22.9992 5.05591 24.2233 7.14675 24.2233 8.94508V15.0659C24.2233 16.8642 22.9992 18.9442 21.4283 19.8217L15.6433 23.0284C14.8958 23.4401 13.9533 23.6459 13 23.6459ZM13 1.97925C12.3175 1.97925 11.6458 2.12008 11.1475 2.39091L5.3625 5.60841C4.3225 6.18258 3.40166 7.74258 3.40166 8.93425V15.0551C3.40166 16.2467 4.3225 17.8067 5.3625 18.3917L11.1475 21.6092C12.1333 22.1617 13.8667 22.1617 14.8525 21.6092L20.6375 18.3917C21.6775 17.8067 22.5983 16.2576 22.5983 15.0551V8.93425C22.5983 7.74258 21.6775 6.18258 20.6375 5.59758L14.8525 2.38008C14.3542 2.12008 13.6825 1.97925 13 1.97925Z" fill="#D2D0CA"/>
</svg>
