<svg width="26" height="24" viewBox="0 0 26 24" fill="none" xmlns="http://www.w3.org/2000/svg">
<path d="M13 23.7109C12.2525 23.7109 11.5483 23.3317 11.05 22.6709L9.425 20.5042C9.3925 20.4609 9.2625 20.4067 9.20833 20.3959H8.66667C4.14917 20.3959 1.35417 19.1717 1.35417 13.0834V7.66675C1.35417 2.87841 3.87833 0.354248 8.66667 0.354248H17.3333C22.1217 0.354248 24.6458 2.87841 24.6458 7.66675V13.0834C24.6458 17.8717 22.1217 20.3959 17.3333 20.3959H16.7917C16.705 20.3959 16.6292 20.4392 16.575 20.5042L14.95 22.6709C14.4517 23.3317 13.7475 23.7109 13 23.7109ZM8.66667 1.97925C4.78833 1.97925 2.97917 3.78841 2.97917 7.66675V13.0834C2.97917 17.9801 4.65833 18.7709 8.66667 18.7709H9.20833C9.76083 18.7709 10.3892 19.0851 10.725 19.5292L12.35 21.6959C12.7292 22.1942 13.2708 22.1942 13.65 21.6959L15.275 19.5292C15.6325 19.0526 16.1958 18.7709 16.7917 18.7709H17.3333C21.2117 18.7709 23.0208 16.9617 23.0208 13.0834V7.66675C23.0208 3.78841 21.2117 1.97925 17.3333 1.97925H8.66667Z" fill="#D2D0CA"/>
<path d="M13 11.9999C12.3933 11.9999 11.9167 11.5124 11.9167 10.9166C11.9167 10.3208 12.4042 9.83325 13 9.83325C13.5958 9.83325 14.0833 10.3208 14.0833 10.9166C14.0833 11.5124 13.6067 11.9999 13 11.9999Z" fill="#D2D0CA"/>
<path d="M17.3333 11.9999C16.7267 11.9999 16.25 11.5124 16.25 10.9166C16.25 10.3208 16.7375 9.83325 17.3333 9.83325C17.9292 9.83325 18.4167 10.3208 18.4167 10.9166C18.4167 11.5124 17.94 11.9999 17.3333 11.9999Z" fill="#D2D0CA"/>
<path d="M8.66667 11.9999C8.06 11.9999 7.58333 11.5124 7.58333 10.9166C7.58333 10.3208 8.07083 9.83325 8.66667 9.83325C9.2625 9.83325 9.75 10.3208 9.75 10.9166C9.75 11.5124 9.27333 11.9999 8.66667 11.9999Z" fill="#D2D0CA"/>
</svg>
