<svg width="26" height="24" viewBox="0 0 26 24" fill="none" xmlns="http://www.w3.org/2000/svg">
<path d="M13 16.0625C10.7575 16.0625 8.9375 14.2425 8.9375 12C8.9375 9.7575 10.7575 7.9375 13 7.9375C15.2425 7.9375 17.0625 9.7575 17.0625 12C17.0625 14.2425 15.2425 16.0625 13 16.0625ZM13 9.5625C11.6567 9.5625 10.5625 10.6567 10.5625 12C10.5625 13.3433 11.6567 14.4375 13 14.4375C14.3433 14.4375 15.4375 13.3433 15.4375 12C15.4375 10.6567 14.3433 9.5625 13 9.5625Z" fill="#D2D0CA"/>
<path d="M16.4775 23.0391C16.25 23.0391 16.0225 23.0066 15.795 22.9524C15.1233 22.7682 14.56 22.3457 14.2025 21.7499L14.0725 21.5332C13.4333 20.4282 12.5558 20.4282 11.9167 21.5332L11.7975 21.7391C11.44 22.3457 10.8767 22.7791 10.205 22.9524C9.5225 23.1366 8.81834 23.0391 8.2225 22.6816L6.35917 21.6091C5.69833 21.2299 5.22167 20.6124 5.01583 19.8649C4.82083 19.1174 4.91833 18.3482 5.2975 17.6874C5.61167 17.1349 5.69833 16.6366 5.51417 16.3224C5.33 16.0082 4.86417 15.8241 4.225 15.8241C2.64333 15.8241 1.35417 14.5349 1.35417 12.9532V11.0466C1.35417 9.4649 2.64333 8.17574 4.225 8.17574C4.86417 8.17574 5.33 7.99157 5.51417 7.6774C5.69833 7.36324 5.6225 6.8649 5.2975 6.3124C4.91833 5.65157 4.82083 4.87157 5.01583 4.1349C5.21083 3.3874 5.6875 2.7699 6.35917 2.39074L8.23333 1.31824C9.4575 0.592403 11.0717 1.0149 11.8083 2.26074L11.9383 2.4774C12.5775 3.5824 13.455 3.5824 14.0942 2.4774L14.2133 2.27157C14.95 1.0149 16.5642 0.592403 17.7992 1.32907L19.6625 2.40157C20.3233 2.78074 20.8 3.39824 21.0058 4.14574C21.2008 4.89324 21.1033 5.6624 20.7242 6.32324C20.41 6.87574 20.3233 7.37407 20.5075 7.68824C20.6917 8.0024 21.1575 8.18657 21.7967 8.18657C23.3783 8.18657 24.6675 9.47574 24.6675 11.0574V12.9641C24.6675 14.5457 23.3783 15.8349 21.7967 15.8349C21.1575 15.8349 20.6917 16.0191 20.5075 16.3332C20.3233 16.6474 20.3992 17.1457 20.7242 17.6982C21.1033 18.3591 21.2117 19.1391 21.0058 19.8757C20.8108 20.6232 20.3342 21.2407 19.6625 21.6199L17.7883 22.6924C17.3767 22.9199 16.9325 23.0391 16.4775 23.0391ZM13 19.0307C13.9642 19.0307 14.8633 19.6374 15.4808 20.7099L15.6 20.9157C15.73 21.1432 15.9467 21.3057 16.2067 21.3707C16.4667 21.4357 16.7267 21.4032 16.9433 21.2732L18.8175 20.1899C19.0992 20.0274 19.3158 19.7566 19.4025 19.4316C19.4892 19.1066 19.4458 18.7707 19.2833 18.4891C18.6658 17.4274 18.59 16.3332 19.0667 15.4991C19.5433 14.6649 20.5292 14.1882 21.7642 14.1882C22.4575 14.1882 23.01 13.6357 23.01 12.9424V11.0357C23.01 10.3532 22.4575 9.7899 21.7642 9.7899C20.5292 9.7899 19.5433 9.31324 19.0667 8.47907C18.59 7.6449 18.6658 6.55074 19.2833 5.48907C19.4458 5.2074 19.4892 4.87157 19.4025 4.54657C19.3158 4.22157 19.11 3.96157 18.8283 3.78824L16.9542 2.71574C16.4883 2.43407 15.8708 2.59657 15.5892 3.07324L15.47 3.27907C14.8525 4.35157 13.9533 4.95824 12.9892 4.95824C12.025 4.95824 11.1258 4.35157 10.5083 3.27907L10.3892 3.0624C10.1183 2.6074 9.51167 2.4449 9.04584 2.71574L7.17167 3.79907C6.89 3.96157 6.67333 4.2324 6.58667 4.5574C6.5 4.8824 6.54333 5.21824 6.70583 5.4999C7.32333 6.56157 7.39917 7.65574 6.9225 8.4899C6.44583 9.32407 5.46 9.80074 4.225 9.80074C3.53167 9.80074 2.97917 10.3532 2.97917 11.0466V12.9532C2.97917 13.6357 3.53167 14.1991 4.225 14.1991C5.46 14.1991 6.44583 14.6757 6.9225 15.5099C7.39917 16.3441 7.32333 17.4382 6.70583 18.4999C6.54333 18.7816 6.5 19.1174 6.58667 19.4424C6.67333 19.7674 6.87917 20.0274 7.16083 20.2007L9.035 21.2732C9.2625 21.4141 9.53333 21.4466 9.7825 21.3816C10.0425 21.3166 10.2592 21.1432 10.4 20.9157L10.5192 20.7099C11.1367 19.6482 12.0358 19.0307 13 19.0307Z" fill="#D2D0CA"/>
</svg>
