<svg width="17" height="19" viewBox="0 0 17 19" fill="none" xmlns="http://www.w3.org/2000/svg">
  <path d="M10.1798 7.4158V14.0269M6.42981 7.4158V14.0269M2.67981 3.63802V14.7825C2.67981 15.8403 2.67981 16.3689 2.88417 16.773C3.06393 17.1284 3.35057 17.4179 3.70337 17.599C4.10406 17.8047 4.62887 17.8047 5.67691 17.8047H10.9327C11.9808 17.8047 12.5048 17.8047 12.9055 17.599C13.2583 17.4179 13.5459 17.1284 13.7256 16.773C13.9298 16.3693 13.9298 15.8412 13.9298 14.7854V3.63802M2.67981 3.63802H4.55481M2.67981 3.63802H0.80481M4.55481 3.63802H12.0548M4.55481 3.63802C4.55481 2.75791 4.55481 2.31807 4.69754 1.97095C4.88784 1.50812 5.25261 1.14018 5.71204 0.948471C6.05661 0.804688 6.49367 0.804688 7.36731 0.804688H9.24231C10.1159 0.804688 10.5528 0.804688 10.8973 0.948471C11.3568 1.14018 11.7217 1.50812 11.912 1.97095C12.0547 2.31807 12.0548 2.75791 12.0548 3.63802M12.0548 3.63802H13.9298M13.9298 3.63802H15.8048" stroke="currentColor" stroke-width="1.60973" stroke-linecap="round" stroke-linejoin="round"/>
</svg>
