<svg width="55" height="65" viewBox="0 0 55 65" fill="none" xmlns="http://www.w3.org/2000/svg">
<path d="M27.127 1C41.5361 1 53.2606 12.7233 53.2607 27.127C53.2607 37.2436 47.341 46.5399 38.1758 50.8154C35.1511 52.2259 32.5883 54.7621 30.9814 57.9814L30.9805 57.9824L28.6836 62.5781C28.3908 63.1637 27.7905 63.5381 27.127 63.5381C26.4615 63.538 25.8751 63.1576 25.5801 62.5947L25.5752 62.5859L23.2734 57.9824V57.9814C21.7669 54.9632 19.4198 52.5454 16.6445 51.0928L16.084 50.8154C6.9189 46.54 1 37.2435 1 27.127C1.00013 12.7237 12.7175 1.00013 27.127 1Z" fill="#2D2D2D" stroke="white" stroke-width="2"/>
<path d="M18.1689 18.0692C18.0669 18.0247 17.9539 18 17.8352 18C17.3739 18 17 18.3739 17 18.8351C17 18.9686 17.0314 19.0944 17.0869 19.2061L17.0846 19.2088C18.1151 21.6694 19.2981 23.4658 20.2969 25.0282C18.8804 28.1752 18.1198 31.5479 17.5311 34.9918L17.5288 35.0051C17.5221 35.0489 17.5181 35.0937 17.5181 35.1395C17.5181 35.6009 17.892 35.9747 18.3532 35.9747C18.6382 35.9747 18.8894 35.8322 19.0402 35.6148L19.0409 35.6138C19.0512 35.599 19.0602 35.5841 19.0695 35.5688L19.0706 35.567C19.3998 35.0573 19.7657 34.5501 20.1209 34.0609C24.9094 27.4992 31.091 23.8532 38.494 21.1915C38.8563 21.0998 39.1239 20.772 39.1239 20.3818C39.1239 19.9205 38.7503 19.5469 38.2888 19.5469H38.2674L38.2629 19.5472C33.7828 19.578 29.9207 19.673 26.3935 19.5392C24.0635 19.4576 21.909 19.1308 19.7995 18.6074C19.2827 18.481 18.68 18.2706 18.1703 18.0679L18.1689 18.0692Z" fill="white"/>
<path d="M20.8751 39.1188C20.9035 39.0802 20.9286 39.0386 20.9504 38.9956C25.7854 31.022 31.6051 27.2918 39.7944 24.3636C39.814 24.3576 39.8329 24.3506 39.8517 24.3432L39.8574 24.3409C40.1617 24.2164 40.3765 23.9171 40.3765 23.5679C40.3765 23.1066 40.0025 22.7327 39.5413 22.7327C39.4741 22.7327 39.4089 22.7407 39.3459 22.7558H39.3449C39.2852 22.7702 39.2283 22.7913 39.1744 22.8177C31.1931 25.6954 25.0232 29.5542 20.1691 37.0769L19.4877 38.1922L19.4851 38.1966C19.4098 38.3219 19.3667 38.4681 19.3667 38.6251C19.3667 39.0863 19.7406 39.4603 20.2015 39.4603C20.4781 39.4603 20.7233 39.3252 20.8751 39.1188Z" fill="white"/>
</svg>
