<svg width="24" height="24" viewBox="0 0 24 24" fill="none" xmlns="http://www.w3.org/2000/svg">
<path d="M11.5006 13.0084C10.5097 13.0096 9.54897 12.6673 8.78209 12.0397C8.01522 11.4122 7.48959 10.5382 7.29471 9.56662C7.27917 9.46428 7.28608 9.35978 7.31494 9.26037C7.3438 9.16096 7.39393 9.06902 7.46185 8.9909C7.52977 8.91279 7.61387 8.85038 7.70831 8.808C7.80275 8.76561 7.90527 8.74426 8.00878 8.74544C8.17889 8.74296 8.3443 8.80131 8.47521 8.90997C8.60613 9.01863 8.69394 9.17046 8.72285 9.33812C8.85733 9.98001 9.20861 10.5561 9.71768 10.9695C10.2268 11.383 10.8626 11.6087 11.5184 11.6087C12.1743 11.6087 12.8101 11.383 13.3192 10.9695C13.8283 10.5561 14.1795 9.98001 14.314 9.33812C14.3429 9.17046 14.4307 9.01863 14.5617 8.90997C14.6926 8.80131 14.858 8.74296 15.0281 8.74544C15.1316 8.74426 15.2341 8.76561 15.3286 8.808C15.423 8.85038 15.5071 8.91279 15.575 8.9909C15.6429 9.06902 15.6931 9.16096 15.7219 9.26037C15.7508 9.35978 15.7577 9.46428 15.7422 9.56662C15.5461 10.5442 15.0152 11.4229 14.241 12.0511C13.4667 12.6794 12.4976 13.0179 11.5006 13.0084Z" fill="black" stroke="black" stroke-width="0.228098"/>
<path d="M17.8554 22.4228H5.14489C4.85433 22.4231 4.56673 22.3644 4.29959 22.2501C4.03244 22.1358 3.79134 21.9683 3.59096 21.7579C3.39057 21.5475 3.23508 21.2986 3.13394 21.0262C3.03281 20.7538 2.98815 20.4636 3.00268 20.1734L3.58108 7.86286C3.60502 7.31095 3.84124 6.78963 4.24041 6.40775C4.63959 6.02587 5.17086 5.81296 5.72329 5.81348H17.277C17.8294 5.81296 18.3607 6.02587 18.7598 6.40775C19.159 6.78963 19.3952 7.31095 19.4192 7.86286L19.9976 20.1734C20.0121 20.4636 19.9674 20.7538 19.8663 21.0262C19.7652 21.2986 19.6097 21.5475 19.4093 21.7579C19.2089 21.9683 18.9678 22.1358 18.7007 22.2501C18.4335 22.3644 18.1459 22.4231 17.8554 22.4228ZM5.72329 7.24876C5.53391 7.24876 5.35228 7.32399 5.21837 7.45791C5.08445 7.59182 5.00922 7.77345 5.00922 7.96283L4.43082 20.2448C4.42598 20.3416 4.44087 20.4383 4.47458 20.5291C4.50829 20.6199 4.56012 20.7029 4.62691 20.773C4.69371 20.8431 4.77408 20.899 4.86312 20.9371C4.95217 20.9752 5.04804 20.9947 5.14489 20.9946H17.8554C17.9522 20.9947 18.0481 20.9752 18.1371 20.9371C18.2262 20.899 18.3065 20.8431 18.3733 20.773C18.4401 20.7029 18.492 20.6199 18.5257 20.5291C18.5594 20.4383 18.5743 20.3416 18.5694 20.2448L17.991 7.93427C17.991 7.74488 17.9158 7.56326 17.7819 7.42934C17.648 7.29543 17.4663 7.2202 17.277 7.2202L5.72329 7.24876Z" fill="black" stroke="black" stroke-width="0.228098"/>
<path d="M15.7847 6.53405H14.3565V5.28442C14.3565 4.52689 14.0556 3.80038 13.5199 3.26473C12.9843 2.72907 12.2578 2.42814 11.5002 2.42814C10.7427 2.42814 10.0162 2.72907 9.48055 3.26473C8.94489 3.80038 8.64396 4.52689 8.64396 5.28442V6.53405H7.21582V5.28442C7.21582 4.14812 7.66721 3.05836 8.4707 2.25488C9.27418 1.45139 10.3639 1 11.5002 1C12.6365 1 13.7263 1.45139 14.5298 2.25488C15.3333 3.05836 15.7847 4.14812 15.7847 5.28442V6.53405Z" fill="black" stroke="black" stroke-width="0.228098"/>
</svg>
