<svg width="16" height="19" viewBox="0 0 16 19" fill="none" xmlns="http://www.w3.org/2000/svg">
<path d="M6.89941 0.150146C7.52543 0.0851303 7.80163 0.0840011 8.40527 0.144287C9.82938 0.286533 11.2242 0.829133 12.3486 1.67944C12.8219 2.03744 13.5516 2.79551 13.9092 3.30054C14.5236 4.16855 14.9645 5.18475 15.1992 6.27124C15.2673 6.58621 15.2997 7.12821 15.2998 7.66284C15.2999 8.19748 15.268 8.74041 15.2002 9.05737C14.7712 11.0602 13.537 13.0411 11.416 15.157C10.9112 15.6605 10.2021 16.3167 9.58496 16.864C9.27628 17.1378 8.9897 17.3847 8.7627 17.572C8.64928 17.6656 8.54979 17.7451 8.46973 17.8054C8.39223 17.8638 8.32591 17.9097 8.28125 17.9314C7.92993 18.1022 7.43896 18.0969 7.09766 17.9167C7.01044 17.8707 6.83735 17.7374 6.62012 17.5583C6.39892 17.3761 6.12303 17.1377 5.8252 16.8738C5.22957 16.346 4.54472 15.7124 4.03711 15.2078C1.8767 13.0602 0.632208 11.0743 0.200195 9.05737C0.132346 8.74041 0.100484 8.19748 0.100586 7.66284C0.100692 7.12821 0.133112 6.58621 0.201172 6.27124C0.436152 5.18351 0.878786 4.16007 1.48242 3.31323C1.85262 2.79393 2.58405 2.03228 3.05176 1.67944C4.14408 0.855536 5.57119 0.288151 6.89941 0.150146ZM8.92871 1.48901C8.45487 1.39287 7.46157 1.3523 6.96777 1.40894C5.50387 1.57691 4.13829 2.26371 3.09375 3.35815C2.17085 4.32524 1.61198 5.45496 1.40137 6.78198C1.36167 7.03218 1.34472 7.40909 1.34961 7.78198C1.35451 8.15538 1.38137 8.516 1.42676 8.73511C1.78951 10.4858 2.78746 12.1243 4.69434 14.074C5.08942 14.4779 5.79009 15.1409 6.41699 15.7136C6.73024 15.9998 7.0248 16.263 7.25195 16.4597C7.36543 16.558 7.46183 16.639 7.53516 16.698C7.57192 16.7276 7.60252 16.7513 7.62598 16.7683C7.63759 16.7767 7.6471 16.7832 7.6543 16.7878C7.65991 16.7914 7.663 16.7931 7.66406 16.7937C7.69151 16.8062 7.72312 16.8092 7.7832 16.7693C7.84412 16.7288 8.01681 16.5831 8.25977 16.3679C8.49975 16.1554 8.80238 15.8809 9.11719 15.5906C9.7471 15.0097 10.4259 14.3657 10.7637 14.0193C12.6115 12.1242 13.6155 10.4634 13.9736 8.73511C14.019 8.516 14.0459 8.15538 14.0508 7.78198C14.0557 7.40909 14.0387 7.03218 13.999 6.78198C13.5761 4.11757 11.5728 2.02636 8.92871 1.48901ZM7.08203 4.08472C8.85711 3.75147 10.6158 4.90396 11.0371 6.67456C11.0824 6.86494 11.1034 7.15286 11.1035 7.43433C11.1036 7.71581 11.0823 8.00396 11.0371 8.19507C10.7436 9.43732 9.71359 10.4652 8.46289 10.7644C8.27151 10.8102 7.98257 10.8318 7.7002 10.8318C7.41782 10.8318 7.12888 10.8102 6.9375 10.7644C5.6868 10.4652 4.65684 9.43732 4.36328 8.19507C4.31814 8.00396 4.29679 7.71581 4.29688 7.43433C4.29697 7.15286 4.31802 6.86494 4.36328 6.67456C4.67611 5.35991 5.75308 4.33438 7.08203 4.08472ZM8.12305 5.32788C7.41274 5.17894 6.72674 5.38869 6.18652 5.92651C5.83188 6.27965 5.64019 6.64948 5.56836 7.11206C5.40115 8.19039 6.0991 9.24522 7.16504 9.52222C8.9185 9.97763 10.423 8.15364 9.64648 6.50952C9.37882 5.94272 8.75926 5.46129 8.12305 5.32788Z" fill="black" stroke="black" stroke-width="0.2"/>
</svg>
