<svg width="24" height="24" viewBox="0 0 24 24" fill="none" xmlns="http://www.w3.org/2000/svg">
<path d="M12 22.0006C11.8328 22.0005 11.6703 21.946 11.5368 21.8454C11.4034 21.7447 11.3064 21.6033 11.2605 21.4426L10.4615 18.6455C10.118 17.4286 9.46813 16.3201 8.57402 15.426C7.67991 14.5319 6.57142 13.882 5.3545 13.5385L2.55743 12.7395C2.39681 12.6935 2.25553 12.5965 2.15496 12.463C2.0544 12.3296 2 12.1671 2 12C2 11.8329 2.0544 11.6704 2.15496 11.537C2.25553 11.4035 2.39681 11.3065 2.55743 11.2605L5.3545 10.4615C6.57142 10.118 7.67991 9.46813 8.57402 8.57402C9.46813 7.67991 10.118 6.57142 10.4615 5.3545L11.2605 2.55743C11.3065 2.39681 11.4035 2.25553 11.537 2.15496C11.6704 2.0544 11.8329 2 12 2C12.1671 2 12.3296 2.0544 12.463 2.15496C12.5965 2.25553 12.6935 2.39681 12.7395 2.55743L13.5385 5.3545C13.882 6.57142 14.5319 7.67991 15.426 8.57402C16.3201 9.46813 17.4286 10.118 18.6455 10.4615L21.4426 11.2605C21.6032 11.3065 21.7445 11.4035 21.845 11.537C21.9456 11.6704 22 11.8329 22 12C22 12.1671 21.9456 12.3296 21.845 12.463C21.7445 12.5965 21.6032 12.6935 21.4426 12.7395L18.6455 13.5385C17.4286 13.882 16.3201 14.5319 15.426 15.426C14.5319 16.3201 13.882 17.4286 13.5385 18.6455L12.7395 21.4426C12.6936 21.6033 12.5966 21.7447 12.4632 21.8454C12.3297 21.946 12.1672 22.0005 12 22.0006ZM5.56887 12L5.77401 12.0595C7.24263 12.4741 8.58039 13.2584 9.65945 14.3375C10.7385 15.4165 11.5228 16.7543 11.9374 18.2229L11.9969 18.428L12.0564 18.2229C12.471 16.7543 13.2553 15.4165 14.3344 14.3375C15.4135 13.2584 16.7512 12.4741 18.2198 12.0595L18.425 12L18.2198 11.9405C16.7512 11.5259 15.4135 10.7416 14.3344 9.66253C13.2553 8.58347 12.471 7.24571 12.0564 5.77709L12 5.5699L11.9405 5.77504C11.5259 7.24366 10.7416 8.58141 9.66253 9.66048C8.58347 10.7395 7.24571 11.5238 5.77709 11.9385L5.56887 12Z" fill="black"/>
</svg>
