<svg width="24" height="24" viewBox="0 0 24 24" fill="none" xmlns="http://www.w3.org/2000/svg">
<path d="M13 5V11.72M13 14.8653V18.44" stroke="black" stroke-width="1.575" stroke-linecap="round" stroke-linejoin="round"/>
<path d="M19.125 20H2.87501C1.84108 20 1 19.1028 1 18V14.6667C1 14.2982 1.27953 14 1.625 14C2.65893 14 3.50001 13.1028 3.50001 12C3.50001 10.8971 2.65893 9.99997 1.625 9.99997C1.27953 10 1 9.70185 1 9.33335V6.00001C1 4.89715 1.84108 4 2.87501 4H19.125C20.1589 4 21 4.89715 21 6.00001V9.33335C21 9.70185 20.7205 10 20.375 10C19.3411 10 18.5 10.8972 18.5 12C18.5 13.1029 19.3411 14 20.375 14C20.7205 14 21 14.2982 21 14.6667V18C21 19.1028 20.1589 20 19.125 20ZM2.25001 15.2663V18C2.25001 18.3678 2.53017 18.6667 2.87501 18.6667H19.125C19.4698 18.6667 19.75 18.3678 19.75 18V15.2663C18.3254 14.9564 17.25 13.61 17.25 12C17.25 10.3899 18.3254 9.04362 19.75 8.73369V6.00001C19.75 5.63218 19.4698 5.33334 19.125 5.33334H2.87501C2.53017 5.33334 2.25001 5.63218 2.25001 6.00001V8.73374C3.67456 9.04362 4.75002 10.39 4.75002 12C4.75002 13.6101 3.67456 14.9564 2.25001 15.2663Z" fill="black" stroke="black" stroke-width="0.216563"/>
</svg>
