<svg width="22" height="22" viewBox="0 0 22 22" fill="none" xmlns="http://www.w3.org/2000/svg">
<path d="M7.69387 7.61285C7.88265 7.03115 8.22845 6.51349 8.69336 6.11617C9.15827 5.71886 9.72459 5.45776 10.3286 5.36194C10.9326 5.26611 11.551 5.33908 12.116 5.57299C12.6811 5.80689 13.1704 6.19273 13.53 6.68742C13.8895 7.18212 14.1048 7.76642 14.1529 8.37608C14.201 8.98574 14.0794 9.59699 13.8018 10.1419C13.5242 10.6868 13.1018 11.144 12.5804 11.4636C12.059 11.7831 11.4593 11.9523 10.8478 11.9523V13.0581M10.8478 20.7946C5.35398 20.7946 0.900391 16.3411 0.900391 10.8473C0.900391 5.35349 5.35398 0.899902 10.8478 0.899902C16.3415 0.899902 20.7951 5.35349 20.7951 10.8473C20.7951 16.3411 16.3415 20.7946 10.8478 20.7946ZM10.9028 16.3736V16.4841L10.7927 16.4843V16.3736H10.9028Z" stroke="black" stroke-width="1.8" stroke-linecap="round" stroke-linejoin="round"/>
</svg>
