<svg width="24" height="24" viewBox="0 0 24 24" fill="none" xmlns="http://www.w3.org/2000/svg">
<g clip-path="url(#clip0_0_12377)">
<mask id="mask0_0_12377" style="mask-type:luminance" maskUnits="userSpaceOnUse" x="2" y="2" width="20" height="20">
<path d="M2 2H22V22H2V2Z" fill="white"/>
</mask>
<g mask="url(#mask0_0_12377)">
<path d="M12.0002 8.92707C10.303 8.92707 8.92722 10.3029 8.92722 12C8.92722 13.6971 10.303 15.0729 12.0002 15.0729C13.6973 15.0729 15.0731 13.6971 15.0731 12C15.0731 10.3029 13.6973 8.92707 12.0002 8.92707ZM20.6252 9.80715L19.7932 10.4921C18.8442 11.2734 18.8442 12.7266 19.7932 13.5079L20.6252 14.1928C20.9201 14.4355 20.9962 14.8559 20.8053 15.1866L19.1624 18.0321C18.9714 18.3629 18.5694 18.5071 18.2118 18.3731L17.2026 17.995C16.0514 17.5638 14.7929 18.2904 14.5908 19.5029L14.4136 20.5659C14.3509 20.9426 14.0249 21.2188 13.643 21.2188H10.3573C9.97539 21.2188 9.64945 20.9426 9.58668 20.5659L9.40949 19.5029C9.20742 18.2904 7.94886 17.5638 6.79773 17.995L5.78859 18.3731C5.43093 18.5071 5.02886 18.3629 4.83789 18.0321L3.19504 15.1866C3.0041 14.8559 3.08023 14.4355 3.37508 14.1928L4.20711 13.5079C5.15613 12.7266 5.15613 11.2734 4.20711 10.4921L3.37508 9.80715C3.08023 9.56441 3.0041 9.1441 3.19504 8.81336L4.83789 5.96785C5.02886 5.63711 5.43093 5.49289 5.78859 5.62688L6.79773 6.00492C7.94886 6.43617 9.20742 5.70957 9.40949 4.49703L9.58668 3.43402C9.64945 3.05734 9.97539 2.78125 10.3573 2.78125H13.643C14.0249 2.78125 14.3509 3.05734 14.4136 3.43402L14.5908 4.49703C14.7929 5.70957 16.0514 6.43617 17.2026 6.00492L18.2118 5.62688C18.5694 5.49289 18.9714 5.63711 19.1624 5.96785L20.8053 8.81336C20.9962 9.1441 20.9201 9.56441 20.6252 9.80715Z" stroke="black" stroke-width="1.5625" stroke-miterlimit="10" stroke-linecap="round" stroke-linejoin="round"/>
</g>
</g>
<defs>
<clipPath id="clip0_0_12377">
<rect width="20" height="20" fill="white" transform="translate(2 2)"/>
</clipPath>
</defs>
</svg>
