<svg width="24" height="24" viewBox="0 0 24 24" fill="none" xmlns="http://www.w3.org/2000/svg">
<path d="M11.4087 2.20491C11.4439 2.12586 11.5561 2.12586 11.5913 2.20491L14.2391 8.14494C14.2536 8.17754 14.2845 8.19993 14.3199 8.20367L20.7875 8.88628C20.8735 8.89537 20.9082 9.00208 20.8439 9.06002L16.0128 13.4138C15.9863 13.4377 15.9745 13.4739 15.9819 13.5088L17.3313 19.8707C17.3493 19.9554 17.2585 20.0213 17.1835 19.9781L11.55 16.7288C11.519 16.711 11.481 16.711 11.45 16.7288L5.81648 19.9781C5.74151 20.0213 5.65074 19.9554 5.6687 19.8707L7.01807 13.5088C7.02547 13.4739 7.01371 13.4377 6.98719 13.4138L2.15609 9.06002C2.0918 9.00208 2.12647 8.89537 2.21254 8.88628L8.68005 8.20367C8.71555 8.19993 8.74636 8.17754 8.76089 8.14494L11.4087 2.20491Z" stroke="black" stroke-width="1.57895"/>
</svg>
