<svg width="20" height="17" viewBox="0 0 20 17" fill="none" xmlns="http://www.w3.org/2000/svg">
<path d="M1 5.84277V11.8249C1 12.9475 1 13.5086 1.21799 13.9374C1.40973 14.3146 1.71547 14.6215 2.0918 14.8137C2.5192 15.032 3.07899 15.032 4.19691 15.032H15.8031C16.921 15.032 17.48 15.032 17.9074 14.8137C18.2837 14.6215 18.5905 14.3146 18.7822 13.9374C19 13.509 19 12.9487 19 11.8283V5.84277M1 5.84277V5.51029M1 5.84277H19M1 5.51029V4.20751C1 3.08484 1 2.52309 1.21799 2.09429C1.40973 1.71711 1.71547 1.41067 2.0918 1.21849C2.51962 1 3.08009 1 4.2002 1H15.8002C16.9203 1 17.4796 1 17.9074 1.21849C18.2837 1.41067 18.5905 1.71711 18.7822 2.09429C19 2.52267 19 3.08375 19 4.20422V5.51029M1 5.51029H19M5 11.0229H9M19 5.84277V5.51029" stroke="black" stroke-width="2" stroke-linecap="round" stroke-linejoin="round"/>
</svg>
