<svg width="24" height="24" viewBox="0 0 24 24" fill="none" xmlns="http://www.w3.org/2000/svg">
<path d="M11.4995 5.95288C11.8924 5.95288 12.2114 6.27192 12.2114 6.66479V16.3347C12.2114 16.7276 11.8924 17.0466 11.4995 17.0466C11.1066 17.0466 10.7876 16.7276 10.7876 16.3347V6.66479C10.7877 6.27196 11.1067 5.95295 11.4995 5.95288Z" fill="black" stroke="black" stroke-width="0.105"/>
<path d="M16.3345 10.7886C16.7273 10.7886 17.0463 11.1076 17.0464 11.5005C17.0464 11.8934 16.7274 12.2124 16.3345 12.2124H6.66455C6.27168 12.2123 5.95264 11.8934 5.95264 11.5005C5.9527 11.1077 6.27172 10.7886 6.66455 10.7886H16.3345Z" fill="black" stroke="black" stroke-width="0.105"/>
<path d="M16.7744 1.9978C17.8957 1.99785 18.9706 2.44321 19.7637 3.23608C20.5568 4.02919 21.002 5.10478 21.002 6.22632V16.7751C21.0019 17.8966 20.5567 18.9713 19.7637 19.7644C18.9706 20.5575 17.8959 21.0026 16.7744 21.0027H6.22559C5.10404 21.0027 4.02846 20.5575 3.23535 19.7644C2.44248 18.9714 1.99712 17.8965 1.99707 16.7751V6.22632C1.99707 5.10478 2.44225 4.02919 3.23535 3.23608C4.02846 2.44298 5.10404 1.9978 6.22559 1.9978H16.7744ZM6.22559 3.42163C5.48173 3.42163 4.76766 3.71658 4.24219 4.24292C3.71585 4.7684 3.4209 5.48246 3.4209 6.22632V16.7751C3.42095 17.5188 3.71606 18.2322 4.24219 18.7576C4.76766 19.2839 5.48173 19.5798 6.22559 19.5798H16.7744C17.5182 19.5798 18.2314 19.2839 18.7568 18.7576C19.2831 18.2321 19.5791 17.5189 19.5791 16.7751V6.22632C19.5791 5.48246 19.2832 4.7684 18.7568 4.24292C18.2314 3.71679 17.5181 3.42168 16.7744 3.42163H6.22559Z" fill="black" stroke="black" stroke-width="0.105"/>
</svg>
