<svg width="24" height="24" viewBox="0 0 24 24" fill="none" xmlns="http://www.w3.org/2000/svg">
<path d="M3.11768 8.14709V12.6979C3.11768 16.0843 3.11768 17.7776 4.2099 18.8304C5.30128 19.8824 7.05738 19.8824 10.5696 19.8824H12.4313C15.9435 19.8824 17.6996 19.8824 18.791 18.8304C19.8824 17.7776 19.8824 16.0843 19.8824 12.6979V8.14709M3.11768 8.14709H19.8824M3.11768 8.14709L3.92406 6.21244C4.54854 4.712 4.86121 3.96262 5.49491 3.54015C6.12862 3.11768 6.94003 3.11768 8.56621 3.11768H14.4339C16.0592 3.11768 16.8714 3.11768 17.5051 3.54015C18.1389 3.96262 18.4515 4.71284 19.076 6.21244L19.8824 8.14709M11.5 8.14709V3.11768M9.82356 11.5H13.1765" stroke="black" stroke-width="1.58333" stroke-linecap="round" stroke-linejoin="round"/>
</svg>
