<svg width="24" height="24" viewBox="0 0 24 24" fill="none" xmlns="http://www.w3.org/2000/svg">
<g clip-path="url(#clip0_0_12510)">
<path d="M13.5 5.63477C16.9513 5.63477 19.5322 7.13996 21.2666 8.6748C22.9984 10.2074 23.8886 11.7718 23.9629 11.9053C24.082 12.1195 24.082 12.3805 23.9629 12.5947C23.8892 12.7272 22.999 14.2921 21.2666 15.8252C19.5322 17.36 16.9513 18.8652 13.5 18.8652C10.0487 18.8652 7.46782 17.36 5.7334 15.8252C4.00159 14.2926 3.11135 12.7282 3.03711 12.5947C2.91804 12.3805 2.91804 12.1195 3.03711 11.9053C3.11081 11.7728 4.001 10.2079 5.7334 8.6748C7.46782 7.13998 10.0487 5.63477 13.5 5.63477ZM13.5 7.05273C8.32893 7.05273 5.29877 11.0296 4.49219 12.248C5.30067 13.4639 8.34358 17.4473 13.5 17.4473C18.6714 17.4473 21.7005 13.4691 22.5068 12.251C21.6972 11.0338 18.6548 7.05273 13.5 7.05273ZM13.5 8.25977C15.7002 8.25977 17.4902 10.0498 17.4902 12.25C17.4902 14.4502 15.7002 16.2402 13.5 16.2402C11.2998 16.2402 9.50977 14.4502 9.50977 12.25C9.50977 10.0498 11.2998 8.25977 13.5 8.25977ZM13.5 9.67773C12.0816 9.67773 10.9277 10.8316 10.9277 12.25C10.9277 13.6684 12.0816 14.8223 13.5 14.8223C14.9184 14.8223 16.0723 13.6684 16.0723 12.25C16.0723 10.8316 14.9184 9.67773 13.5 9.67773Z" fill="black" stroke="black" stroke-width="0.105"/>
</g>
<defs>
<clipPath id="clip0_0_12510">
<rect width="24" height="24" fill="white"/>
</clipPath>
</defs>
</svg>
