<svg width="26" height="26" viewBox="0 0 26 26" fill="none" xmlns="http://www.w3.org/2000/svg">
<mask id="path-1-inside-1_1045_1388" fill="white">
<path d="M17.875 9.34916C17.4308 9.34916 17.0625 8.98083 17.0625 8.53666V7.04166C17.0625 5.90416 16.575 4.79916 15.73 4.03C14.8742 3.25 13.7692 2.8925 12.5992 3.00083C10.6492 3.185 8.9375 5.17833 8.9375 7.25833V8.30916C8.9375 8.75333 8.56917 9.12166 8.125 9.12166C7.68083 9.12166 7.3125 8.75333 7.3125 8.30916V7.2475C7.3125 4.33333 9.66333 1.64666 12.4475 1.37583C14.0725 1.22417 15.6325 1.73333 16.8242 2.8275C18.005 3.9 18.6875 5.43833 18.6875 7.04166V8.53666C18.6875 8.98083 18.3192 9.34916 17.875 9.34916Z"/>
</mask>
<path d="M17.875 9.34916C17.4308 9.34916 17.0625 8.98083 17.0625 8.53666V7.04166C17.0625 5.90416 16.575 4.79916 15.73 4.03C14.8742 3.25 13.7692 2.8925 12.5992 3.00083C10.6492 3.185 8.9375 5.17833 8.9375 7.25833V8.30916C8.9375 8.75333 8.56917 9.12166 8.125 9.12166C7.68083 9.12166 7.3125 8.75333 7.3125 8.30916V7.2475C7.3125 4.33333 9.66333 1.64666 12.4475 1.37583C14.0725 1.22417 15.6325 1.73333 16.8242 2.8275C18.005 3.9 18.6875 5.43833 18.6875 7.04166V8.53666C18.6875 8.98083 18.3192 9.34916 17.875 9.34916Z" fill="black"/>
<path d="M15.73 4.03L14.3828 5.50818L14.3837 5.50902L15.73 4.03ZM12.5992 3.00083L12.4148 1.00935L12.4111 1.00969L12.5992 3.00083ZM12.4475 1.37583L12.2616 -0.615529L12.2539 -0.614772L12.4475 1.37583ZM16.8242 2.8275L15.4715 4.30072L15.4795 4.30799L16.8242 2.8275ZM17.875 9.34916V7.34916C18.5354 7.34916 19.0625 7.87626 19.0625 8.53666H17.0625H15.0625C15.0625 10.0854 16.3263 11.3492 17.875 11.3492V9.34916ZM17.0625 8.53666H19.0625V7.04166H17.0625H15.0625V8.53666H17.0625ZM17.0625 7.04166H19.0625C19.0625 5.34084 18.3375 3.69896 17.0763 2.55098L15.73 4.03L14.3837 5.50902C14.8125 5.89937 15.0625 6.46749 15.0625 7.04166H17.0625ZM15.73 4.03L17.0772 2.55181C15.7907 1.37934 14.1243 0.851062 12.4148 1.00935L12.5992 3.00083L12.7836 4.99231C13.4141 4.93393 13.9576 5.12065 14.3828 5.50818L15.73 4.03ZM12.5992 3.00083L12.4111 1.00969C10.8219 1.15979 9.45836 2.02379 8.52043 3.1149C7.57883 4.21027 6.9375 5.67931 6.9375 7.25833H8.9375H10.9375C10.9375 6.75735 11.152 6.18973 11.5537 5.72239C11.9591 5.25079 12.4264 5.02604 12.7872 4.99197L12.5992 3.00083ZM8.9375 7.25833H6.9375V8.30916H8.9375H10.9375V7.25833H8.9375ZM8.9375 8.30916H6.9375C6.9375 7.64876 7.4646 7.12166 8.125 7.12166V9.12166V11.1217C9.67374 11.1217 10.9375 9.8579 10.9375 8.30916H8.9375ZM8.125 9.12166V7.12166C8.7854 7.12166 9.3125 7.64876 9.3125 8.30916H7.3125H5.3125C5.3125 9.8579 6.57626 11.1217 8.125 11.1217V9.12166ZM7.3125 8.30916H9.3125V7.2475H7.3125H5.3125V8.30916H7.3125ZM7.3125 7.2475H9.3125C9.3125 5.29648 10.9465 3.53128 12.6411 3.36644L12.4475 1.37583L12.2539 -0.614772C8.38017 -0.237954 5.3125 3.37018 5.3125 7.2475H7.3125ZM12.4475 1.37583L12.6334 3.36718C13.7124 3.26647 14.7088 3.60043 15.4715 4.30069L16.8242 2.8275L18.1768 1.3543C16.5562 -0.133767 14.4326 -0.818135 12.2616 -0.615514L12.4475 1.37583ZM16.8242 2.8275L15.4795 4.30799C16.2428 5.00129 16.6875 6.00194 16.6875 7.04166H18.6875H20.6875C20.6875 4.87472 19.7672 2.79871 18.1688 1.347L16.8242 2.8275ZM18.6875 7.04166H16.6875V8.53666H18.6875H20.6875V7.04166H18.6875ZM18.6875 8.53666H16.6875C16.6875 7.87626 17.2146 7.34916 17.875 7.34916V9.34916V11.3492C19.4237 11.3492 20.6875 10.0854 20.6875 8.53666H18.6875Z" fill="black" mask="url(#path-1-inside-1_1045_1388)"/>
<mask id="path-3-inside-2_1045_1388" fill="white">
<path d="M16.2499 24.6459H9.74993C4.74493 24.6459 3.81326 22.3167 3.57493 20.0526L2.76243 13.5634C2.64326 12.3934 2.59993 10.7142 3.73743 9.45758C4.71243 8.37425 6.32659 7.85425 8.66659 7.85425H17.3333C19.6841 7.85425 21.2983 8.38508 22.2624 9.45758C23.3891 10.7142 23.3566 12.3934 23.2374 13.5417L22.4249 20.0526C22.1866 22.3167 21.2549 24.6459 16.2499 24.6459ZM8.66659 9.47925C6.83576 9.47925 5.57909 9.83675 4.93993 10.5517C4.40909 11.1367 4.23576 12.0359 4.37659 13.3792L5.18909 19.8684C5.37326 21.6017 5.84993 23.0317 9.74993 23.0317H16.2499C20.1499 23.0317 20.6266 21.6126 20.8108 19.8901L21.6233 13.3792C21.7641 12.0576 21.5908 11.1584 21.0599 10.5626C20.4208 9.83675 19.1641 9.47925 17.3333 9.47925H8.66659Z"/>
</mask>
<path d="M16.2499 24.6459H9.74993C4.74493 24.6459 3.81326 22.3167 3.57493 20.0526L2.76243 13.5634C2.64326 12.3934 2.59993 10.7142 3.73743 9.45758C4.71243 8.37425 6.32659 7.85425 8.66659 7.85425H17.3333C19.6841 7.85425 21.2983 8.38508 22.2624 9.45758C23.3891 10.7142 23.3566 12.3934 23.2374 13.5417L22.4249 20.0526C22.1866 22.3167 21.2549 24.6459 16.2499 24.6459ZM8.66659 9.47925C6.83576 9.47925 5.57909 9.83675 4.93993 10.5517C4.40909 11.1367 4.23576 12.0359 4.37659 13.3792L5.18909 19.8684C5.37326 21.6017 5.84993 23.0317 9.74993 23.0317H16.2499C20.1499 23.0317 20.6266 21.6126 20.8108 19.8901L21.6233 13.3792C21.7641 12.0576 21.5908 11.1584 21.0599 10.5626C20.4208 9.83675 19.1641 9.47925 17.3333 9.47925H8.66659Z" fill="black"/>
<path d="M3.57493 20.0526L5.56394 19.8432L5.56188 19.8236L5.55943 19.8041L3.57493 20.0526ZM2.76243 13.5634L0.772719 13.7661L0.775056 13.789L0.77792 13.8119L2.76243 13.5634ZM3.73743 9.45758L5.2202 10.7997L5.22401 10.7955L3.73743 9.45758ZM22.2624 9.45758L23.7516 8.12249L23.7498 8.12048L22.2624 9.45758ZM23.2374 13.5417L25.222 13.7894L25.2246 13.7688L25.2267 13.7482L23.2374 13.5417ZM22.4249 20.0526L20.4403 19.8049L20.4379 19.824L20.4359 19.8432L22.4249 20.0526ZM4.93993 10.5517L6.42105 11.8957L6.42604 11.8902L6.431 11.8847L4.93993 10.5517ZM4.37659 13.3792L2.38749 13.5878L2.38959 13.6078L2.39209 13.6277L4.37659 13.3792ZM5.18909 19.8684L7.1779 19.6571L7.17592 19.6385L7.1736 19.6199L5.18909 19.8684ZM20.8108 19.8901L18.8262 19.6424L18.824 19.6599L18.8221 19.6775L20.8108 19.8901ZM21.6233 13.3792L23.6079 13.6269L23.6101 13.6091L23.612 13.5912L21.6233 13.3792ZM21.0599 10.5626L19.5589 11.8844L19.5666 11.893L21.0599 10.5626ZM16.2499 24.6459V22.6459H9.74993V24.6459V26.6459H16.2499V24.6459ZM9.74993 24.6459V22.6459C7.52583 22.6459 6.64149 22.1271 6.27045 21.7657C5.88638 21.3915 5.66665 20.819 5.56394 19.8432L3.57493 20.0526L1.58591 20.262C1.72154 21.5504 2.0868 23.2745 3.4794 24.631C4.88503 26.0002 6.96902 26.6459 9.74993 26.6459V24.6459ZM3.57493 20.0526L5.55943 19.8041L4.74693 13.3149L2.76243 13.5634L0.77792 13.8119L1.59042 20.3011L3.57493 20.0526ZM2.76243 13.5634L4.75213 13.3608C4.63578 12.2184 4.7154 11.3574 5.22019 10.7997L3.73743 9.45758L2.25466 8.11542C0.484453 10.0711 0.650737 12.5684 0.772719 13.7661L2.76243 13.5634ZM3.73743 9.45758L5.22401 10.7955C5.6389 10.3345 6.55077 9.85425 8.66659 9.85425V7.85425V5.85425C6.10242 5.85425 3.78595 6.41397 2.25084 8.11965L3.73743 9.45758ZM8.66659 7.85425V9.85425H17.3333V7.85425V5.85425H8.66659V7.85425ZM17.3333 7.85425V9.85425C19.4552 9.85425 20.3692 10.3432 20.7751 10.7947L22.2624 9.45758L23.7498 8.12048C22.2273 6.427 19.913 5.85425 17.3333 5.85425V7.85425ZM22.2624 9.45758L20.7733 10.7927C21.2795 11.3572 21.3623 12.2349 21.2481 13.3353L23.2374 13.5417L25.2267 13.7482C25.3509 12.5519 25.4987 10.0712 23.7516 8.12249L22.2624 9.45758ZM23.2374 13.5417L21.2528 13.2941L20.4403 19.8049L22.4249 20.0526L24.4095 20.3002L25.222 13.7894L23.2374 13.5417ZM22.4249 20.0526L20.4359 19.8432C20.3332 20.819 20.1135 21.3915 19.7294 21.7657C19.3584 22.1271 18.474 22.6459 16.2499 22.6459V24.6459V26.6459C19.0308 26.6459 21.1148 26.0002 22.5205 24.631C23.9131 23.2745 24.2783 21.5504 24.4139 20.262L22.4249 20.0526ZM8.66659 9.47925V7.47925C6.74264 7.47925 4.69817 7.82128 3.44885 9.21882L4.93993 10.5517L6.431 11.8847C6.42358 11.893 6.52023 11.7811 6.90803 11.6698C7.29424 11.559 7.86686 11.4792 8.66659 11.4792V9.47925ZM4.93993 10.5517L3.4588 9.20777C2.34043 10.4403 2.22907 12.0766 2.38749 13.5878L4.37659 13.3792L6.36569 13.1707C6.30735 12.6142 6.32867 12.2701 6.36842 12.069C6.40363 11.8908 6.44298 11.8716 6.42105 11.8957L4.93993 10.5517ZM4.37659 13.3792L2.39209 13.6277L3.20459 20.1169L5.18909 19.8684L7.1736 19.6199L6.3611 13.1308L4.37659 13.3792ZM5.18909 19.8684L3.20029 20.0797C3.2968 20.9881 3.50602 22.4632 4.72851 23.5779C5.91895 24.6634 7.64389 25.0317 9.74993 25.0317V23.0317V21.0317C7.95597 21.0317 7.49256 20.6851 7.42363 20.6222C7.38675 20.5886 7.26555 20.482 7.1779 19.6571L5.18909 19.8684ZM9.74993 23.0317V25.0317H16.2499V23.0317V21.0317H9.74993V23.0317ZM16.2499 23.0317V25.0317C18.3532 25.0317 20.0758 24.6671 21.2661 23.5895C22.4923 22.4793 22.7027 21.0077 22.7994 20.1027L20.8108 19.8901L18.8221 19.6775C18.7347 20.495 18.6146 20.5942 18.5815 20.6242C18.5124 20.6868 18.0466 21.0317 16.2499 21.0317V23.0317ZM20.8108 19.8901L22.7954 20.1377L23.6079 13.6269L21.6233 13.3792L19.6387 13.1316L18.8262 19.6424L20.8108 19.8901ZM21.6233 13.3792L23.612 13.5912C23.7725 12.0849 23.6532 10.4668 22.5532 9.23217L21.0599 10.5626L19.5666 11.893C19.5675 11.894 19.5686 11.8953 19.5704 11.898C19.5722 11.9008 19.5761 11.9072 19.5816 11.9188C19.5925 11.942 19.613 11.9936 19.6316 12.0877C19.6713 12.2875 19.6922 12.6256 19.6345 13.1673L21.6233 13.3792ZM21.0599 10.5626L22.5609 9.24082C21.3102 7.82052 19.2557 7.47925 17.3333 7.47925V9.47925V11.4792C18.1334 11.4792 18.7042 11.5591 19.088 11.67C19.472 11.7811 19.566 11.8924 19.5589 11.8843L21.0599 10.5626ZM17.3333 9.47925V7.47925H8.66659V9.47925V11.4792H17.3333V9.47925Z" fill="black" mask="url(#path-3-inside-2_1045_1388)"/>
<path d="M16.6938 13.0791C16.7137 13.0791 16.7343 13.0864 16.7524 13.1045C16.7704 13.1225 16.7778 13.1425 16.7778 13.1621C16.7778 13.2188 16.7351 13.2461 16.7046 13.2461C16.644 13.2459 16.6108 13.1991 16.6108 13.1621C16.6109 13.1424 16.6182 13.1225 16.6362 13.1045C16.6543 13.0865 16.6741 13.0792 16.6938 13.0791Z" fill="black" stroke="black" strokeWidth="2"/>
<path d="M9.1106 13.0791C9.1304 13.0791 9.15105 13.0864 9.16919 13.1045C9.18711 13.1225 9.1945 13.1425 9.19458 13.1621C9.19458 13.2188 9.15184 13.2461 9.12134 13.2461C9.06073 13.2459 9.02759 13.1991 9.02759 13.1621C9.02767 13.1424 9.03494 13.1225 9.05298 13.1045C9.07102 13.0865 9.0909 13.0792 9.1106 13.0791Z" fill="black" stroke="black" strokeWidth="2"/>
</svg>
