<svg width="26" height="24" viewBox="0 0 26 24" fill="none" xmlns="http://www.w3.org/2000/svg">
<path d="M17.875 8.34916C17.4308 8.34916 17.0625 7.98083 17.0625 7.53666V6.04166C17.0625 4.90416 16.575 3.79916 15.73 3.03C14.8742 2.25 13.7692 1.8925 12.5992 2.00083C10.6492 2.185 8.9375 4.17833 8.9375 6.25833V7.30916C8.9375 7.75333 8.56917 8.12166 8.125 8.12166C7.68083 8.12166 7.3125 7.75333 7.3125 7.30916V6.2475C7.3125 3.33333 9.66333 0.646665 12.4475 0.375832C14.0725 0.224165 15.6325 0.733332 16.8242 1.8275C18.005 2.9 18.6875 4.43833 18.6875 6.04166V7.53666C18.6875 7.98083 18.3192 8.34916 17.875 8.34916Z" fill="#D2D0CA"/>
<path d="M16.25 23.6459H9.75C4.745 23.6459 3.81333 21.3167 3.575 19.0526L2.7625 12.5634C2.64333 11.3934 2.6 9.71425 3.7375 8.45758C4.7125 7.37425 6.32667 6.85425 8.66667 6.85425H17.3333C19.6842 6.85425 21.2983 7.38508 22.2625 8.45758C23.3892 9.71425 23.3567 11.3934 23.2375 12.5417L22.425 19.0526C22.1867 21.3167 21.255 23.6459 16.25 23.6459ZM8.66667 8.47925C6.83583 8.47925 5.57917 8.83675 4.94 9.55175C4.40917 10.1367 4.23583 11.0359 4.37667 12.3792L5.18917 18.8684C5.37333 20.6017 5.85 22.0317 9.75 22.0317H16.25C20.15 22.0317 20.6267 20.6126 20.8108 18.8901L21.6233 12.3792C21.7642 11.0576 21.5908 10.1584 21.06 9.56258C20.4208 8.83675 19.1642 8.47925 17.3333 8.47925H8.66667Z" fill="#D2D0CA"/>
<path d="M16.705 13.2458C16.0983 13.2458 15.6108 12.7583 15.6108 12.1624C15.6108 11.5666 16.0983 11.0791 16.6942 11.0791C17.29 11.0791 17.7775 11.5666 17.7775 12.1624C17.7775 12.7583 17.3008 13.2458 16.705 13.2458Z" fill="#D2D0CA"/>
<path d="M9.12167 13.2458C8.515 13.2458 8.0275 12.7583 8.0275 12.1624C8.0275 11.5666 8.515 11.0791 9.11083 11.0791C9.70667 11.0791 10.1942 11.5666 10.1942 12.1624C10.1942 12.7583 9.7175 13.2458 9.12167 13.2458Z" fill="#D2D0CA"/>
</svg>
