<svg width="26" height="24" viewBox="0 0 26 24" fill="none" xmlns="http://www.w3.org/2000/svg">
<path d="M16.25 23.6459H9.75C3.8675 23.6459 1.35417 21.1326 1.35417 15.2501V8.75008C1.35417 2.86758 3.8675 0.354248 9.75 0.354248H16.25C22.1325 0.354248 24.6458 2.86758 24.6458 8.75008V15.2501C24.6458 21.1326 22.1325 23.6459 16.25 23.6459ZM9.75 1.97925C4.75583 1.97925 2.97917 3.75591 2.97917 8.75008V15.2501C2.97917 20.2442 4.75583 22.0209 9.75 22.0209H16.25C21.2442 22.0209 23.0208 20.2442 23.0208 15.2501V8.75008C23.0208 3.75591 21.2442 1.97925 16.25 1.97925H9.75Z" fill="#D2D0CA"/>
<path d="M16.25 16.4741H10.92C8.63417 16.4741 6.77083 14.6108 6.77083 12.325C6.77083 10.0391 8.63417 8.17578 10.92 8.17578H18.2542C18.6983 8.17578 19.0667 8.54411 19.0667 8.98828C19.0667 9.43245 18.6983 9.80078 18.2542 9.80078H10.92C9.53333 9.80078 8.39583 10.9275 8.39583 12.325C8.39583 13.7225 9.5225 14.8491 10.92 14.8491H16.25C16.6942 14.8491 17.0625 15.2174 17.0625 15.6616C17.0625 16.1058 16.6942 16.4741 16.25 16.4741Z" fill="#D2D0CA"/>
<path d="M16.716 11.48C16.5101 11.48 16.3043 11.4042 16.1418 11.2417C15.8276 10.9275 15.8276 10.4075 16.1418 10.0933L17.2685 8.96668L16.1418 7.84002C15.8276 7.52585 15.8276 7.00585 16.1418 6.69168C16.456 6.37751 16.976 6.37751 17.2901 6.69168L18.991 8.39251C19.3051 8.70668 19.3051 9.22669 18.991 9.54085L17.2901 11.2417C17.1276 11.3934 16.9218 11.48 16.716 11.48Z" fill="#D2D0CA"/>
</svg>
