<svg width="26" height="24" viewBox="0 0 26 24" fill="none" xmlns="http://www.w3.org/2000/svg">
<path d="M9.92291 11.5884C9.89041 11.5884 9.86874 11.5884 9.83624 11.5884C9.78208 11.5776 9.70624 11.5776 9.64124 11.5884C6.49957 11.4909 4.12708 9.02091 4.12708 5.97675C4.12708 2.87841 6.65124 0.354248 9.74958 0.354248C12.8479 0.354248 15.3721 2.87841 15.3721 5.97675C15.3612 9.02091 12.9779 11.4909 9.95541 11.5884C9.94457 11.5884 9.93374 11.5884 9.92291 11.5884ZM9.74958 1.97925C7.55041 1.97925 5.75208 3.77758 5.75208 5.97675C5.75208 8.14341 7.44208 9.88758 9.59791 9.96341C9.66291 9.95258 9.80374 9.95258 9.94458 9.96341C12.0679 9.86591 13.7362 8.12175 13.7471 5.97675C13.7471 3.77758 11.9487 1.97925 9.74958 1.97925Z" fill="currentColor"/>
<path d="M17.9179 11.7291C17.8854 11.7291 17.8529 11.7291 17.8204 11.7183C17.3762 11.7616 16.9212 11.4474 16.8779 11.0033C16.8346 10.5591 17.1054 10.1583 17.5496 10.1041C17.6796 10.0933 17.8204 10.0933 17.9396 10.0933C19.5212 10.0066 20.7562 8.70658 20.7562 7.11408C20.7562 5.46742 19.4237 4.13492 17.7771 4.13492C17.3329 4.14575 16.9646 3.77742 16.9646 3.33325C16.9646 2.88909 17.3329 2.52075 17.7771 2.52075C20.3121 2.52075 22.3812 4.58992 22.3812 7.12492C22.3812 9.61658 20.4312 11.6316 17.9504 11.7291C17.9396 11.7291 17.9287 11.7291 17.9179 11.7291Z" fill="currentColor"/>
<path d="M9.93374 23.4291C7.81041 23.4291 5.67624 22.8874 4.06208 21.8041C2.55624 20.8074 1.73291 19.4424 1.73291 17.9583C1.73291 16.4741 2.55624 15.0983 4.06208 14.0908C7.31208 11.9349 12.5771 11.9349 15.8054 14.0908C17.3004 15.0874 18.1346 16.4524 18.1346 17.9366C18.1346 19.4208 17.3112 20.7966 15.8054 21.8041C14.1804 22.8874 12.0571 23.4291 9.93374 23.4291ZM4.96124 15.4558C3.92124 16.1491 3.35791 17.0374 3.35791 17.9691C3.35791 18.8899 3.93208 19.7783 4.96124 20.4608C7.65874 22.2699 12.2087 22.2699 14.9062 20.4608C15.9462 19.7674 16.5096 18.8791 16.5096 17.9474C16.5096 17.0266 15.9354 16.1383 14.9062 15.4558C12.2087 13.6574 7.65874 13.6574 4.96124 15.4558Z" fill="currentColor"/>
<path d="M19.8679 21.4792C19.4887 21.4792 19.1529 21.2192 19.0771 20.8292C18.9904 20.385 19.2721 19.9625 19.7054 19.865C20.3879 19.7242 21.0162 19.4534 21.5037 19.0742C22.1212 18.6084 22.4571 18.0234 22.4571 17.4059C22.4571 16.7884 22.1212 16.2034 21.5146 15.7484C21.0379 15.38 20.4421 15.12 19.7379 14.9575C19.3046 14.86 19.0229 14.4267 19.1204 13.9825C19.2179 13.5492 19.6512 13.2675 20.0954 13.365C21.0271 13.5709 21.8396 13.9392 22.5004 14.4484C23.5079 15.2067 24.0821 16.2792 24.0821 17.4059C24.0821 18.5325 23.4971 19.605 22.4896 20.3742C21.8179 20.8942 20.9729 21.2734 20.0412 21.4575C19.9762 21.4792 19.9221 21.4792 19.8679 21.4792Z" fill="currentColor"/>
</svg>
